<?xml version="1.0" standalone="no"?><!DOCTYPE svg PUBLIC "-//W3C//DTD SVG 1.1//EN" "http://www.w3.org/Graphics/SVG/1.1/DTD/svg11.dtd"><svg t="1706003306703" class="icon" viewBox="0 0 1024 1024" version="1.1" xmlns="http://www.w3.org/2000/svg" p-id="26508" xmlns:xlink="http://www.w3.org/1999/xlink" width="200" height="200"><path d="M484.118261 266.562783l-193.446957 101.776695a40.893217 40.893217 0 0 0-26.045217 39.41287v208.372869a36.730435 36.730435 0 0 0 20.301913 37.030957l206.436174 108.710956a39.991652 39.991652 0 0 0 40.626087 1.113044c22.405565-11.853913 211.656348-112.161391 211.656348-112.161391a36.10713 36.10713 0 0 0 15.582608-29.862957c0.367304-20.813913 0-213.23687 0-213.236869a36.964174 36.964174 0 0 0-18.654608-35.283479l-209.452522-110.825739a34.148174 34.148174 0 0 0-25.6-4.852869 39.168 39.168 0 0 0-11.130435 4.36313z" fill="#87B3FF" p-id="26509"></path><path d="M308.424348 406.984348l202.963478 101.665391 0.545391 213.214609-203.508869-107.163826z" fill="#D3E3FF" p-id="26510"></path><path d="M712.325565 415.376696l-163.550608 82.721391v47.749565l163.550608-82.721391z" fill="#186CFF" p-id="26511"></path><path d="M512 100.173913a411.826087 411.826087 0 1 0 411.826087 411.826087A412.293565 412.293565 0 0 0 512 100.173913m0-100.173913A512 512 0 1 1 0 512 512 512 0 0 1 512 0z" fill="#ECF3FF" p-id="26512"></path></svg>