<?xml version="1.0" standalone="no"?><!DOCTYPE svg PUBLIC "-//W3C//DTD SVG 1.1//EN" "http://www.w3.org/Graphics/SVG/1.1/DTD/svg11.dtd"><svg t="1706003418289" class="icon" viewBox="0 0 1024 1024" version="1.1" xmlns="http://www.w3.org/2000/svg" p-id="26651" width="200" height="200" xmlns:xlink="http://www.w3.org/1999/xlink"><path d="M0 0h1024v1024H0z" fill="#1296db" fill-opacity="0" p-id="26652"></path><path d="M512 65.6L898.6 288.8v446.5L512 958.5 125.4 735.2V288.8L512 65.6m0-65.6L68.5 256v512l443.4 256 443.4-256V256L512 0z" fill="#1296db" p-id="26653"></path><path d="M338.5 602.8l-0.4 141.1c0 1.8-1 3.5-2.6 4.4-1.6 1-3.6 1-5.2-0.1l-122.8-70.8c-1.6-0.9-2.6-2.7-2.6-4.5l0.4-140.9c0-1.8 1-3.6 2.6-4.5 1.6-0.9 3.6-0.9 5.2 0l122.7 70.9c1.7 0.9 2.7 2.6 2.7 4.4z m0.6-183.4l-0.4 141c0 1.8-1 3.6-2.6 4.5-1.6 0.9-3.5 0.9-5.1-0.1L208.2 494c-1.6-0.9-2.6-2.7-2.6-4.5l0.4-141c0-1.8 1-3.6 2.6-4.5 1.6-0.9 3.6-0.9 5.2 0L336.6 414.9c1.5 1 2.5 2.7 2.5 4.5zM498.2 695l-0.4 141c0 1.8-1 3.5-2.6 4.5-1.6 0.9-3.5 0.9-5.1 0l-122.8-70.9c-1.6-0.9-2.6-2.6-2.6-4.5l0.4-141c0-1.8 1-3.6 2.6-4.5 1.6-0.9 3.6-0.9 5.2 0l122.8 70.9c1.5 1 2.5 2.7 2.5 4.5z m187-92.2l0.4 141.1c0 4 4.4 6.4 7.8 4.4l122.8-70.8c1.6-0.9 2.6-2.7 2.6-4.5l-0.5-141c0-1.8-1-3.6-2.6-4.5-1.6-0.9-3.6-0.9-5.2 0l-122.8 70.9c-1.5 0.9-2.5 2.6-2.5 4.4z m-0.5-183.4l0.4 141c0 1.9 1 3.6 2.6 4.5 1.6 0.9 3.6 0.9 5.2-0.1L815.6 494c1.6-0.9 2.6-2.7 2.6-4.5l-0.4-141c0-1.8-1-3.6-2.6-4.5-1.6-0.9-3.6-0.9-5.2 0l-122.8 70.9c-1.5 1-2.5 2.7-2.5 4.5zM525.6 695l0.3 141c0 4 4.3 6.4 7.7 4.5l122.8-70.9c1.6-0.9 2.6-2.6 2.6-4.5l-0.4-141c0-1.8-1-3.6-2.6-4.5-1.6-0.9-3.6-0.9-5.2 0l-122.8 70.9c-1.5 1-2.4 2.7-2.4 4.5z m-10.4-394.5l121.9-70.9c1.6-0.9 2.6-2.6 2.6-4.5s-1-3.5-2.6-4.5l-122.7-70.8c-1.6-0.9-3.5-0.9-5.1 0l-122 70.9c-1.6 0.9-2.6 2.6-2.6 4.4 0 1.8 1 3.6 2.6 4.5l122.8 70.9c1.5 1 3.5 1 5.1 0z m-158.7 92.2l121.9-70.9c1.6-0.9 2.6-2.6 2.6-4.5 0-1.8-1-3.5-2.6-4.4L355.7 242c-1.6-1-3.6-1-5.2 0L228.6 312.9c-1.6 0.9-2.6 2.6-2.6 4.4 0 1.8 1 3.6 2.6 4.5l122.8 70.9c1.6 1 3.6 1 5.1 0z m316.2 6.8l126.3-73.4c1.7-0.9 2.7-2.7 2.7-4.7s-1-3.7-2.7-4.7l-127.2-73.4c-1.6-1-3.7-1-5.3 0l-126.3 73.4c-1.7 1-2.7 2.7-2.7 4.7 0 1.9 1 3.7 2.7 4.7l127.2 73.4c1.6 0.9 3.6 0.9 5.3 0z m-13.6 19.9l-0.4 141c0 1.8-1 3.5-2.6 4.5-1.6 0.9-3.6 0.9-5.2-0.1L528.2 494c-1.6-0.9-2.6-2.7-2.6-4.5l0.4-141c0-4 4.3-6.4 7.8-4.4L656.6 415c1.5 0.9 2.5 2.6 2.5 4.4z m-294.4 0l0.3 141c0 1.8 1 3.6 2.6 4.5s3.6 0.9 5.2 0L495.6 494c1.6-0.9 2.6-2.7 2.6-4.5l-0.3-141c0-1.8-1-3.6-2.6-4.5-1.6-0.9-3.6-0.9-5.2 0l-122.8 70.9c-1.6 1-2.6 2.7-2.6 4.5z m150.5 247l121.9-70.9c1.6-0.9 2.6-2.6 2.6-4.5 0-1.8-1-3.5-2.6-4.4l-122.7-70.9c-1.6-0.9-3.5-0.9-5.1 0l-122 70.9c-1.6 0.9-2.5 2.6-2.6 4.4 0 1.9 1 3.6 2.6 4.5l122.8 70.9c1.5 0.9 3.5 0.9 5.1 0z" fill="#1296db" p-id="26654"></path></svg>