<svg t="1697264057182" class="icon" viewBox="0 0 1024 1024" version="1.1" xmlns="http://www.w3.org/2000/svg" p-id="76145" width="32" height="32"><path d="M512 703.8c-105.8 0-191.8-86-191.8-191.8s86-191.8 191.8-191.8S703.8 406.3 703.8 512 617.7 703.8 512 703.8z m0-321.8c-71.7 0-130 58.3-130 130s58.3 130 130 130 130-58.3 130-130-58.3-130-130-130z" fill="#979FB2" p-id="76146"></path><path d="M596.1 1024H427.9c-10.9 0-20.2-8-21.7-18.8l-17.1-121.8-52.9-21.8-98.1 73.9c-8.8 6.6-21 5.8-28.6-2l-119-118.9c-7.7-7.7-8.6-19.9-2-28.6l73.9-98.1-21.8-52.9-121.8-17.2C8 616.2 0 607 0 596.1V427.9c0-10.9 8-20.2 18.8-21.7l121.8-17.1 21.8-52.9-73.9-98.1c-6.6-8.7-5.7-20.9 2-28.6l118.9-119c7.8-7.8 20-8.6 28.6-2l98.1 73.9 52.9-21.8 17.1-121.8C407.8 8 417 0 427.9 0h168.2c10.9 0 20.2 8 21.7 18.8l17.1 121.8 52.9 21.8 98.1-73.9c8.7-6.6 20.9-5.7 28.6 2l118.9 118.9c7.7 7.7 8.6 19.9 2 28.6l-73.9 98.1 21.8 52.9 121.8 17.1c10.8 1.5 18.8 10.8 18.8 21.7V596c0 10.9-8 20.2-18.8 21.7l-121.8 17.1-21.8 52.9 73.9 98.1c6.6 8.7 5.7 20.9-2 28.6L814.6 933.5c-7.8 7.8-19.9 8.6-28.6 2l-98.1-73.9-52.9 21.8-17.1 121.8c-1.7 10.8-10.9 18.8-21.8 18.8z m-145.4-71h122.5l15.3-108.6c1-7.2 5.8-13.4 12.6-16.2l71.6-29.5c6.8-2.8 14.4-1.8 20.3 2.6l87.5 65.9 86.6-86.6-65.9-87.6c-4.4-5.8-5.4-13.5-2.6-20.3l29.5-71.6c2.8-6.8 8.9-11.5 16.2-12.6L953 573.3V450.7l-108.6-15.3c-7.2-1-13.4-5.8-16.2-12.6l-29.5-71.6c-2.8-6.7-1.8-14.4 2.6-20.3l65.9-87.5-86.6-86.6-87.6 66c-5.8 4.4-13.4 5.4-20.3 2.6l-71.6-29.5c-6.8-2.8-11.5-8.9-12.6-16.2L573.3 71H450.7l-15.3 108.6c-1 7.2-5.8 13.4-12.6 16.2l-71.6 29.5c-6.7 2.8-14.4 1.8-20.3-2.6l-87.5-65.9-85.6 86.6 64.9 87.5c4.4 5.8 5.4 13.5 2.6 20.3l-29.5 71.6c-2.8 6.7-8.9 11.5-16.2 12.6L71 450.7v122.5l108.6 15.3c7.2 1 13.4 5.8 16.2 12.6l29.5 71.6c2.8 6.7 1.8 14.4-2.6 20.3l-65.9 87.5 86.6 86.6 87.5-65.9c5.8-4.4 13.6-5.3 20.3-2.6l71.6 29.5c6.7 2.8 11.5 8.9 12.6 16.2L450.7 953z" fill="#979FB2" p-id="76147"></path></svg>
