<svg t="1697262986318" class="icon" viewBox="0 0 1024 1024" version="1.1" xmlns="http://www.w3.org/2000/svg" p-id="41170" width="32" height="32"><path d="M715.5 801.1c-23.7 0-46.3-3.6-63.7-10.2-30.8-11.7-35.4-28.8-35.4-38s4.6-26.3 35.4-38c3.6-1.4 7.5-1.4 11.1 0 27.7 10.5 77.1 10.5 105.1 0 3.6-1.4 7.5-1.4 11.1 0 30.8 11.6 35.4 28.8 35.4 38s-4.6 26.3-35.4 38c-17.4 6.6-40 10.2-63.6 10.2z m-67.7-47.4c0.9 0 4.9 3.9 15.1 7.8 27.7 10.5 77.1 10.5 105.1 0 9-3.4 13.2-6.9 14.7-8.6-1.2-1.4-4-3.8-9.6-6.4-33 10.5-82.4 10.4-115.1 0-7.1 3.3-9.8 6.3-10.2 7.3-0.1-0.1 0-0.1 0-0.1z m135.4 0.1h0.2-0.2z" fill="" p-id="41171"></path><path d="M715.5 754.6c-23.7 0-46.4-3.6-63.7-10.2-30.8-11.6-35.4-28.8-35.4-38 0-33.1 51.4-48.2 99.1-48.2s99.1 15.1 99.1 48.2c0 9.2-4.6 26.3-35.4 38-17.5 6.5-40.1 10.2-63.7 10.2z m-67.7-47.4c0.8 0 4.8 3.9 15.1 7.8 27.7 10.5 77.2 10.6 105.1 0 9.1-3.4 13.3-6.9 14.7-8.6-4.2-5.4-27.2-16.7-67.2-16.7-42.2 0-65.6 12.5-67.8 17.5h0.1z m135.4 0h0.2-0.2z" fill="" p-id="41172"></path><path d="M498.8 891.4H256.2c-66.6 0-120.8-54.2-120.8-120.8V239.8c0-66.6 54.2-120.8 120.8-120.8h432.4c66.6 0 120.8 54.2 120.8 120.8v275.9c0 8.7-7 15.7-15.7 15.7s-15.7-7-15.7-15.7V239.8c0-49.3-40.1-89.3-89.4-89.3H256.2c-49.3 0-89.4 40.1-89.4 89.3v530.8c0 49.3 40.1 89.3 89.4 89.3h242.7c8.7 0 15.7 7 15.7 15.7s-7.1 15.8-15.8 15.8z" fill="" p-id="41173"></path><path d="M641.3 532.7c-8.7 0-15.7-7-15.7-15.7V384.8c0-8.7 7-15.7 15.7-15.7s15.7 7 15.7 15.7V517c0.1 8.6-7 15.7-15.7 15.7zM336.3 643.9c-8.7 0-15.7-7-15.7-15.7V473.6c0-8.7 7-15.7 15.7-15.7s15.7 7 15.7 15.7v154.6c0 8.7-7.1 15.7-15.7 15.7zM488.8 602.8c-8.7 0-15.7-7-15.7-15.7V384.8c0-8.7 7-15.7 15.7-15.7s15.7 7 15.7 15.7v202.3c0 8.7-7 15.7-15.7 15.7zM709.6 905c-98.7 0-179.1-80.3-179.1-179s80.3-179 179.1-179c98.7 0 179 80.3 179 179s-80.3 179-179 179z m0-326.6C628.2 578.4 562 644.6 562 726c0 81.4 66.2 147.6 147.6 147.6S857.2 807.4 857.2 726c0-81.4-66.2-147.6-147.6-147.6z" fill="" p-id="41174"></path></svg>
