<svg t="1697263566017" class="icon" viewBox="0 0 1024 1024" version="1.1" xmlns="http://www.w3.org/2000/svg" p-id="58016" width="32" height="32"><path d="M903.5 98.2H119.3c-30.9 0-56 25.1-56 56v606.1c0 30.9 25.1 56 56 56h224v56c0 30.9 25.1 56 56 56h224c30.9 0 56-25.1 56-56v-56h224c30.9 0 56-25.1 56-56V154.2c0.2-31-24.9-56-55.8-56z m-1.8 648.4H126.6V168.5h769.1l6 578.1zM567.3 326.7h-308c-15.4 0-28-12.6-28-28s12.6-28 28-28h308c15.4 0 28 12.6 28 28s-12.6 28-28 28z m56 148.9h-364c-15.4 0-28-12.6-28-28s12.6-28 28-28h364c15.4 0 28 12.6 28 28s-12.6 28-28 28z m140 149h-504c-15.4 0-28-12.6-28-28s12.6-28 28-28h504c15.4 0 28 12.6 28 28s-12.6 28-28 28z" p-id="58017"></path></svg>
