<svg t="1697262127958" class="icon" viewBox="0 0 1025 1024" version="1.1" xmlns="http://www.w3.org/2000/svg" p-id="17078" width="32" height="32"><path d="M469.856 470.336c3.744 0 7.52-1.312 10.56-3.968l362.144-317.504-21.12-24.064-362.144 317.472c-6.656 5.824-7.328 15.936-1.472 22.592 3.168 3.616 7.584 5.472 12.032 5.472zM326.016 1024c196.544 0 313.984-154.56 313.984-304 0-43.072-10.304-90.528-25.536-121.344l144.704-72.352c5.408-2.72 8.832-8.256 8.832-14.304l0-128 96 0c0.352 0 3.264-0.192 3.616-0.192 21.312-1.44 27.68-8.224 28.384-31.808l0-128 96 0c4.128 0 6.976 0.448 8.896 0.736 3.872 0.608 11.104 1.728 17.376-3.904 6.464-5.76 6.176-13.056 5.92-19.488-0.064-2.304-0.192-5.344-0.192-9.344l0-144.992c0-25.92-21.088-47.008-47.008-47.008l-124 0c-11.328 0-22.336 4.128-31.008 11.648l-421.984 369.92c-20.768-4.16-52.16-9.568-74.016-9.568-179.744 0-325.984 146.24-325.984 325.984s146.24 326.016 326.016 326.016zM326.016 404c16.032 0 43.488 3.84 75.328 10.496 4.96 1.088 10.048-0.32 13.824-3.616l427.872-375.104c2.784-2.432 6.336-3.776 9.952-3.776l124 0c8.288 0 15.008 6.72 15.008 15.008l0 144.992-112 0c-8.832 0-16 7.168-16 16l0 144-112 0c-8.832 0-16 7.168-16 16l0 134.112-151.168 75.584c-4.192 2.08-7.264 5.952-8.384 10.496s-0.192 9.376 2.56 13.184c14.08 19.424 28.992 67.648 28.992 118.624 0 133.696-105.472 272-281.984 272-162.112 0-294.016-131.904-294.016-294.016s131.904-293.984 294.016-293.984zM272 864c61.76 0 112-50.24 112-112s-50.24-112-112-112-112 50.24-112 112 50.24 112 112 112zM272 672c44.096 0 80 35.904 80 80s-35.904 80-80 80-80-35.904-80-80 35.904-80 80-80z" fill="#444444" p-id="17079"></path></svg>
