<svg t="1697262852020" class="icon" viewBox="0 0 1024 1024" version="1.1" xmlns="http://www.w3.org/2000/svg" p-id="36913" width="32" height="32"><path d="M819.2 339.2c-166.4-19.2-275.2-6.4-384 6.4C313.6 352 198.4 364.8 19.2 339.2c-6.4 0-12.8 0-12.8 6.4C0 345.6 0 352 0 358.4l0 422.4c0 6.4 6.4 19.2 19.2 19.2 64 12.8 128 12.8 179.2 12.8 83.2 0 160-6.4 230.4-19.2 121.6-12.8 236.8-25.6 390.4 0 6.4 0 12.8 0 12.8-6.4 6.4-6.4 6.4-6.4 6.4-12.8L838.4 358.4C838.4 345.6 825.6 339.2 819.2 339.2zM800 755.2c-147.2-25.6-256-12.8-377.6 0-115.2 12.8-230.4 25.6-384 6.4l0-384c172.8 25.6 288 12.8 403.2 0 102.4-12.8 211.2-25.6 358.4-6.4L800 755.2z" p-id="36914"></path><path d="M915.2 236.8c-160-19.2-275.2-6.4-384 6.4C409.6 256 294.4 268.8 115.2 236.8c-6.4 0-19.2 6.4-19.2 12.8 0 6.4 6.4 19.2 12.8 19.2 179.2 32 300.8 19.2 422.4 6.4C633.6 262.4 742.4 256 896 268.8l0 409.6c0 6.4 6.4 19.2 19.2 19.2s19.2-6.4 19.2-19.2L934.4 256C928 249.6 921.6 243.2 915.2 236.8z" p-id="36915"></path><path d="M1011.2 153.6c-160-19.2-275.2-6.4-384 6.4C505.6 172.8 390.4 185.6 211.2 153.6 204.8 153.6 198.4 160 192 166.4c0 6.4 6.4 12.8 12.8 12.8 179.2 32 300.8 19.2 422.4 6.4 102.4-12.8 211.2-25.6 364.8-6.4l0 416c0 6.4 6.4 12.8 12.8 12.8s12.8-6.4 12.8-12.8L1017.6 166.4C1017.6 160 1017.6 153.6 1011.2 153.6z" p-id="36916"></path><path d="M678.4 435.2l57.6 0c6.4 0 12.8-6.4 12.8-12.8s-6.4-12.8-12.8-12.8l-57.6 0c-6.4 0-12.8 6.4-12.8 12.8S672 435.2 678.4 435.2z" p-id="36917"></path><path d="M128 704 70.4 704c-6.4 0-12.8 6.4-12.8 12.8s6.4 12.8 12.8 12.8L128 729.6c6.4 0 12.8-6.4 12.8-12.8S134.4 704 128 704z" p-id="36918"></path><path d="M518.4 428.8 428.8 524.8 345.6 428.8c-6.4-6.4-12.8-6.4-12.8 0-6.4 6.4-6.4 12.8 0 12.8l76.8 89.6L352 531.2c-6.4 0-12.8 6.4-12.8 12.8 0 6.4 6.4 12.8 12.8 12.8l70.4 0 0 44.8L352 601.6c-6.4 0-12.8 6.4-12.8 12.8s6.4 12.8 12.8 12.8l70.4 0L422.4 704c0 6.4 6.4 12.8 12.8 12.8s12.8-6.4 12.8-12.8L448 620.8 512 620.8c6.4 0 12.8-6.4 12.8-12.8S518.4 595.2 512 595.2L441.6 595.2 441.6 550.4 512 550.4c6.4 0 12.8-6.4 12.8-12.8 0-6.4-6.4-12.8-12.8-12.8L454.4 524.8l76.8-89.6c6.4-6.4 6.4-12.8 0-12.8C524.8 422.4 518.4 422.4 518.4 428.8z" p-id="36919"></path></svg>
