<svg t="1697264814315" class="icon" viewBox="0 0 1024 1024" version="1.1" xmlns="http://www.w3.org/2000/svg" p-id="111288" width="32" height="32"><path d="M512 96c229.76 0 416 186.24 416 416s-186.24 416-416 416S96 741.76 96 512 282.24 96 512 96z m0 64C317.6 160 160 317.6 160 512s157.6 352 352 352 352-157.6 352-352S706.4 160 512 160z m0 128a191.68 191.68 0 0 1 150.848 73.184l-45.76 45.76A128 128 0 0 0 384 480v63.968a128 128 0 0 0 233.088 73.088l45.76 45.728A192 192 0 0 1 320 544v-64a192 192 0 0 1 192-192z" fill="#000000" p-id="111289"></path></svg>
