<svg t="1697264512822" class="icon" viewBox="0 0 1024 1024" version="1.1" xmlns="http://www.w3.org/2000/svg" p-id="101472" width="32" height="32"><path d="M512 928c228.8 0 415-186.2 415-415S740.8 98 512 98 97 284.2 97 513s186.2 415 415 415z m0-785c204 0 370 166 370 370S716 883 512 883 142 717 142 513s166-370 370-370z" p-id="101473"></path><path d="M463.2 301.2c0 5.4 0.7 11.5 1.1 16.9 1.2 15.1 4 31.1 6.7 46 5.2 29.8 9.6 59.9 14 89.8 4.2 28.8 8.3 57.6 12.3 86.5 1.9 13.6 3.7 27.2 5.9 40.7 1 6 2 12.2 2.5 18.3 0.2 1.9 0.6 5.5 1.8 7.1l0.1 0.1c1.5 2.5 3.7 4.8 6.9 4.3 3.5-0.4 5.5-6.8 6.2-9.5 2.3-8.6 3.7-17.9 4.7-26.7 1.5-12.5 3.2-25 5-37.5l11.5-80.7c2.6-20.9 5.2-41.7 7.8-62.6 1.8-14.2 3.6-28.4 5.5-42.5 1.1-8.5 2.3-17 3.7-25.4 1.5-10.2 1.9-20.5 1.2-30.8-0.7-10.7-6.2-19-14.5-25.4-10.3-8-23.2-10.5-36-10.4-11.8 0.1-24.5 2.5-33.4 10.9-8.4 8.4-11.9 19.5-13 30.9z m48.7 368.1c-8.4 0.2-16.3 2.5-23.8 6.4-7.8 4.1-13.9 9.9-18.3 17.5s-6.6 15.8-6.5 24.6c0.1 8.7 2.2 16.9 6.6 24.4 4.3 7.5 10.2 13.4 17.6 17.7 7.5 4.3 15.7 6.5 24.4 6.5 8.7 0.2 16.8-2 24.3-6.3 7.6-4.3 13.5-10.3 17.9-17.9 4.3-7.6 6.6-15.8 6.7-24.5 0-8.8-2.3-16.9-6.7-24.5-4.5-7.7-10.6-13.6-18.5-17.7-7.4-3.9-15.4-6.2-23.7-6.2z" p-id="101474"></path></svg>
