<svg t="1699885416445" class="icon" viewBox="0 0 1024 1024" version="1.1" xmlns="http://www.w3.org/2000/svg" p-id="6898" width="32" height="32"><path d="M568 760c4.3 252.3 379.7 252.4 384 0-4.3-252.3-379.7-252.4-384 0z m284.9-64.6l-35.7 35.7 20 19.9a4.2 4.2 0 0 1 0 5.7l-22.7 22.6a3.9 3.9 0 0 1-5.6 0l-20-20-35.7 35.7a3.4 3.4 0 0 1-1.6 1 43.9 43.9 0 1 1-27.6-27.6 3.4 3.4 0 0 1 1-1.6l99.6-99.7a4 4 0 0 1 5.7 0l22.6 22.6a4 4 0 0 1 0 5.7zM512 566c133.7 0 242-108.3 242-242S645.7 82 512 82 270 190.3 270 324s108.3 242 242 242z m4.8 299.3a264.4 264.4 0 0 1 0-205.6c2.3-5.4 4.8-10.8 7.4-16a4 4 0 0 0-3.7-5.8H512a311.4 311.4 0 0 1-122.2-24.7 319.8 319.8 0 0 1-57.9-32 4 4 0 0 0-4.2-0.3C208.7 646.3 128 772.7 128 918v25a4 4 0 0 0 4 4h429.9a4 4 0 0 0 3-6.7 261.9 261.9 0 0 1-48.1-75z" p-id="6899"></path></svg>
