<svg t="1697264919669" class="icon" viewBox="0 0 1024 1024" version="1.1" xmlns="http://www.w3.org/2000/svg" p-id="113184" width="32" height="32"><path d="M677.969668 682.651591a35.412551 35.412551 0 0 0-34.132579-8.533144 34.13258 34.13258 0 0 0-25.172778 23.892805 33.705922 33.705922 0 0 0 8.959802 33.279265l125.010573 119.464029a36.265866 36.265866 0 0 0 34.559237 8.533145 34.985894 34.985894 0 0 0 25.172777-23.892806 33.705922 33.705922 0 0 0-9.386459-33.279265z m56.318756-106.664311a255.994347 255.994347 0 0 0-99.411138-247.461202 285.860354 285.860354 0 0 0-273.060636-42.665724 34.985894 34.985894 0 0 0-20.479548 26.879406 32.852608 32.852608 0 0 0 9.813117 31.145979l109.224254 104.531025a33.705922 33.705922 0 0 1 0 48.212269l-34.985894 33.279265a36.692523 36.692523 0 0 1-50.772212 0L263.685484 426.657245a37.545838 37.545838 0 0 0-32.425951-9.38646 35.412551 35.412551 0 0 0-26.026092 20.906205 255.994347 255.994347 0 0 0 42.665725 261.967548 282.447096 282.447096 0 0 0 255.994346 95.997881l162.983068 155.303237a167.676297 167.676297 0 0 0 229.541597 0 151.036665 151.036665 0 0 0 0-219.728481z m111.357541 326.392792a93.437937 93.437937 0 0 1-127.997173 0l-189.862474-181.755986-19.199576 4.266573a210.768679 210.768679 0 0 1-180.476014-42.665725 190.289131 190.289131 0 0 1-69.545131-164.689696l64.425244 61.438643a109.650912 109.650912 0 0 0 151.463321 0l34.985895-33.279265a99.411138 99.411138 0 0 0 0-144.636806L445.014813 341.325796a207.355421 207.355421 0 0 1 170.662897 67.411844 189.435817 189.435817 0 0 1 42.665725 170.662898l-4.69323 18.772919 189.862474 181.329329a85.331449 85.331449 0 0 1 2.133286 122.450629z m147.19675-485.109287L587.518332 29.866007a110.504226 110.504226 0 0 0-151.036664 0L31.157285 417.270785a99.837795 99.837795 0 0 0 17.06629 157.863181v346.445682A104.957682 104.957682 0 0 0 155.314543 1023.977387H512a34.13258 34.13258 0 1 0 0-68.265159H155.314543a34.985894 34.985894 0 0 1-35.839208-34.13258V554.654418a34.13258 34.13258 0 0 0-23.892806-31.999293 34.985894 34.985894 0 0 1-23.466148-24.74612 33.705922 33.705922 0 0 1 9.813116-31.999294l404.897726-387.404778a36.692523 36.692523 0 0 1 50.345554 0l404.897726 387.404778a33.705922 33.705922 0 0 1-13.653032 56.745414 34.13258 34.13258 0 0 0-23.892806 31.999293v81.918191a35.839209 35.839209 0 0 0 71.25176 0v-61.011986a100.264452 100.264452 0 0 0 17.06629-158.289838z" fill="#636363" p-id="113185"></path></svg>
