<svg t="1699885471712" class="icon" viewBox="0 0 1024 1024" version="1.1" xmlns="http://www.w3.org/2000/svg" p-id="9656" width="32" height="32"><path d="M893.805714 41.984L1005.763048 838.704762a48.761905 48.761905 0 0 1-41.496381 55.076571L167.521524 1005.763048a48.761905 48.761905 0 0 1-55.076572-41.496381L0.487619 167.521524a48.761905 48.761905 0 0 1 41.496381-55.076572L838.704762 0.487619a48.761905 48.761905 0 0 1 55.076571 41.496381z m-56.58819 17.798095L59.782095 169.033143 169.033143 946.468571l777.435428-109.251047-109.251047-777.435429zM486.887619 520.338286a29.257143 29.257143 0 0 1 34.499048-5.12l2.779428 1.706666 267.849143 184.466286 2.535619 1.950476a29.257143 29.257143 0 0 1-33.011809 47.908572l-2.706286-1.682286-245.394286-168.96-182.710857 228.839619-2.121143 2.389333a29.257143 29.257143 0 0 1-45.470476-36.327619l1.852952-2.584381 199.728762-250.148571 2.169905-2.438095z m235.788191-324.973715a29.257143 29.257143 0 0 1 5.90019 38.619429l-1.901714 2.56-206.604191 251.12381a29.257143 29.257143 0 0 1-36.815238 6.997333l-2.730667-1.706667-260.949333-185.441524a29.257143 29.257143 0 0 1 31.207619-49.395809l2.681905 1.706667 238.738286 169.618285 189.293714-230.083047a29.257143 29.257143 0 0 1 41.203809-3.998477z" fill="#979797" p-id="9657"></path></svg>
