<svg t="1697262172699" class="icon" viewBox="0 0 1024 1024" version="1.1" xmlns="http://www.w3.org/2000/svg" p-id="20060" width="32" height="32"><path d="M560.342299 77.721345c39.651265 0 77.721345 6.203112 113.358831 18.366076 29.312745 10.095261 58.62549 24.569189 87.330087 43.178525 28.826226 18.730966 55.584749 40.745932 79.42416 65.315121 24.569189 25.298967 45.002969 52.300748 60.936453 80.397196 16.541632 29.312745 27.60993 58.868749 32.840005 88.059865 8.514075 47.313933 10.46015 83.681197 6.081482 114.696757-3.770519 26.880152-11.798076 46.705785-21.163558 69.572159-3.892149 9.608742-8.027557 19.582373-11.919706 30.650671-13.86578 39.043117-47.192303 70.910084-76.505048 99.128162-12.162965 11.676446-23.717781 22.744744-32.961634 33.569783l-0.12163 0.121629-0.12163 0.12163c-40.137784 48.16534-55.828008 99.97957-44.273191 145.712317 8.878964 35.637487 8.635705 42.083858 8.270816 51.206082 0 1.337926-0.12163 2.675852-0.12163 4.257038-0.364889 7.297779-0.12163 16.784891 0.12163 23.352892H401.737239c-0.973037-10.21689-1.702815-21.650077-1.337926-25.785485 1.702815-8.757335-0.486519-17.636299-5.959853-24.447559-9.730372-11.919705-25.177337-13.257632-36.002375-13.257632-9.730372 0-21.285188 1.337926-34.66445 3.892149h-0.243259c-11.919705 2.432593-58.138971 9.000594-101.439126 9.000594-46.340896 0-58.990379-7.662668-61.179712-9.243854-5.351704-12.041335-2.432593-20.920299 2.675852-34.056301 4.257038-10.825039 9.487112-24.2043 3.162371-38.678228-2.432593-5.473334-5.473334-9.852001-8.514075-13.379261l4.986815-0.851407 3.40563-16.420003c0.973037-4.865186 1.824445-17.028151-11.433187-26.028744-0.486519-0.364889-1.094667-0.729778-1.702815-1.094667 3.52726-3.892149 6.446371-8.514075 7.905927-14.352298v-0.24326c3.162371-13.500891 7.784297-66.166528-26.272003-77.356455l-0.364889-0.12163-0.364889-0.12163c-4.986816-1.459556-11.311557-2.554223-19.217485-4.013778-7.784297-1.337926-16.541632-2.919112-24.325929-4.865186-4.013778-0.973037-6.81126-1.946074-8.878964-2.675852 0.486519-4.500297 2.310963-6.93289 6.081482-12.406224l0.12163-0.12163 0.121629-0.121629c12.041335-17.879558 27.001782-41.47571 36.610524-65.315121v-0.243259c4.135408-10.581779 9.243853-20.79867 14.109039-30.650671 6.081482-12.406224 11.433187-22.988003 14.352299-33.083264l0.486518-1.581186C158.234686 492.721701 162.248464 479.585699 149.72061 460.733104c-0.364889-0.486519-0.608148-0.973037-0.973037-1.459556-6.324742-9.365483-19.582373-28.947856-6.446371-64.098824 3.770519-9.852001 24.2043-60.328305 62.274379-118.710536 17.514669-26.880152 36.002376-50.962822 54.854971-71.518232 21.893337-23.839411 44.394821-43.056895 66.896306-57.165935 71.761492-45.246229 154.834541-70.058677 234.015441-70.058676m0-24.32593c-87.938235 0-175.268322 28.704597-246.908184 73.707566-104.966386 65.55838-175.146692 210.784179-193.999287 259.314408-18.366077 49.138377 3.648889 78.207863 9.973631 87.816606 6.446371 9.608742 4.986816 13.014372 0.364889 28.218078-4.378667 15.203706-18.244447 37.340302-27.853189 61.78786-9.608742 23.961041-26.393633 49.138377-34.177931 60.814824-8.149186 11.798076-11.433187 18.609336-10.33852 35.759116 1.824445 17.14978 54.976601 21.041929 69.937047 25.420597 14.595558 4.743556 12.041335 40.989191 10.216891 48.773488-1.824445 7.419408-21.163559 14.838817-20.433781 21.650077 0.608148 6.446371 26.636893 20.55541 25.420596 20.79867-1.216296 0.608148-13.257632 7.784297-15.811854 19.217484-2.432593 11.433187 11.798076 12.406224 17.636299 26.028745 6.203112 13.62252-22.623114 37.94845-4.986816 74.558974 8.392446 16.906521 44.151562 21.893337 82.586531 21.893336 44.151562 0 91.830384-6.568001 106.182682-9.487112 11.189928-2.189334 21.771707-3.40563 30.042523-3.405631 11.919705 0 19.460744 2.554223 18.122817 8.757335-1.946074 8.635705 2.797482 54.611712 4.621927 54.611712h407.094429c-1.581185 0-3.40563-32.840005-2.554223-46.584155 0.364889-13.62252 2.189334-18.609336-8.757334-62.396009-10.946668-43.543414 9.852001-88.546383 39.408005-124.18387 30.164153-35.150968 91.952013-78.572752 113.96698-140.360613 22.258225-62.15275 51.57097-95.965792 27.974819-227.325811C934.231835 237.177812 806.642335 116.156313 681.485428 73.221048c-39.408006-13.62252-80.397197-19.825632-121.143129-19.825633z" fill="" p-id="20061"></path></svg>
