<svg t="1697263176388" class="icon" viewBox="0 0 1024 1024" version="1.1" xmlns="http://www.w3.org/2000/svg" p-id="46062" width="32" height="32"><path d="M936.585366 274.731707v699.317073H87.414634V274.731707h849.170732z m0-49.951219H87.414634a49.95122 49.95122 0 0 0-49.951219 49.951219v699.317073a49.95122 49.95122 0 0 0 49.951219 49.95122h849.170732a49.95122 49.95122 0 0 0 49.951219-49.95122V274.731707a49.95122 49.95122 0 0 0-49.951219-49.951219z" fill="#515151" p-id="46063"></path><path d="M307.949268 505.256585a24.97561 24.97561 0 0 1 49.95122 0v246.259513a24.97561 24.97561 0 0 1-49.95122 0v-246.259513zM428.83122 505.256585a24.97561 24.97561 0 0 1 49.951219 0v246.259513a24.97561 24.97561 0 0 1-49.951219 0v-246.259513zM553.709268 501.76a24.97561 24.97561 0 0 1 49.95122 0v246.009756a24.97561 24.97561 0 0 1-49.95122 0v-246.009756zM670.09561 501.76a24.97561 24.97561 0 0 1 49.951219 0v246.009756a24.97561 24.97561 0 0 1-49.951219 0v-246.009756z" fill="#515151" p-id="46064"></path><path d="M319.762732 252.028878a24.97561 24.97561 0 0 1-48.602537-11.538732c1.723317-7.242927 5.244878-19.156293 10.964293-34.266536a376.557268 376.557268 0 0 1 37.063805-73.553171C364.344195 63.762732 427.457561 21.479024 510.001951 21.479024c82.569366 0 145.607805 42.308683 190.713756 111.191415a376.03278 376.03278 0 0 1 36.963903 73.578146c5.694439 15.110244 9.216 27.048585 10.914341 34.266537a24.97561 24.97561 0 0 1-48.602536 11.48878 154.099512 154.099512 0 0 0-1.998049-7.242926 310.871415 310.871415 0 0 0-7.068098-20.929561 326.755902 326.755902 0 0 0-32.018731-63.787708C622.267317 104.04839 573.639805 71.430244 510.001951 71.430244c-63.637854 0-112.340293 32.643122-149.029463 88.613463-13.237073 20.205268-23.901659 42.008976-32.118634 63.812683-2.872195 7.617561-5.244878 14.660683-7.093074 20.929561-1.073951 3.646439-1.748293 6.119024-1.998048 7.242927z" fill="#515151" p-id="46065"></path></svg>
