<svg t="1697263270014" class="icon" viewBox="0 0 1024 1024" version="1.1" xmlns="http://www.w3.org/2000/svg" p-id="51464" width="32" height="32"><path d="M429.092232 768.396725c-11.149242 0.532379-22.395745 0.829282-33.62689 0.829282-85.129425 0-164.935062-15.290535-224.715065-43.05102-52.572411-24.407523-83.952049-56.268349-83.952049-85.231806v-66.066168c28.902029 25.390376 70.657935 46.798148 121.663924 62.26273 56.186445 17.036123 120.855118 26.040492 187.00319 26.040493 17.199932 0 34.481768-0.624521 51.589558-1.84285a287.776362 287.776362 0 0 1 22.165388-46.649697c-24.069667 2.63118-48.815045 3.982603-73.754946 3.982604-85.129425 0-164.935062-15.290535-224.715065-43.051021-52.572411-24.407523-83.952049-56.273468-83.952049-85.231806V424.321299c28.89691 25.395495 70.652816 46.803267 121.658805 62.26273 56.186445 17.036123 120.855118 26.040492 187.008309 26.040492 66.153191 0 130.816745-9.004369 187.003189-26.040492 51.005989-15.459463 92.756776-36.867235 121.658805-62.26273v48.507903a296.140853 296.140853 0 0 1 44.494586 1.146663V189.281157c0-47.166718-37.440566-91.067497-105.426369-123.614274-66.296524-31.73797-154.277247-49.214329-247.730211-49.214329-93.463202 0-181.449045 17.476359-247.74045 49.214329-67.980684 32.546776-105.416131 76.447555-105.416131 123.614274v451.662024c0 47.15648 37.435447 91.047021 105.416131 123.583559 66.291405 31.732851 154.272128 49.20921 247.74045 49.20921 12.57745 0 25.282876-0.342975 37.94735-1.008448a292.055869 292.055869 0 0 1-4.32046-44.330777zM170.750277 104.008398c59.774883-27.760486 139.58052-43.045901 224.715065-43.045901 85.124306 0 164.924824 15.290535 224.704826 43.05102 52.572411 24.412642 83.962287 56.288825 83.962287 85.26764 0 28.958338-31.389876 60.814045-83.967406 85.226687-59.780002 27.750247-139.58052 43.035663-224.699707 43.035663-85.129425 0-164.935062-15.285416-224.715065-43.035663-52.572411-24.407523-83.952049-56.268349-83.952049-85.226687 0-28.978814 31.384757-60.854998 83.952049-85.272759z m-83.952049 169.757187c28.902029 25.395495 70.657935 46.803267 121.669043 62.267849 56.181326 17.031004 120.849999 26.035373 186.998071 26.035373 66.153191 0 130.811626-9.004369 186.99807-26.035373 51.005989-15.464582 92.767014-36.872354 121.669043-62.267849v66.066167c0 28.963457-31.389876 60.824283-83.967406 85.236925-59.780002 27.760486-139.58052 43.045901-224.699707 43.045901-85.129425 0-164.935062-15.285416-224.715065-43.045901-52.572411-24.407523-83.952049-56.273468-83.952049-85.231806V273.765585z m817.104271 303.558323c-49.362781-49.373019-115.091093-76.565293-185.088674-76.565292-69.966866 0-135.669583 27.176916-185.001649 76.514102-102.022216 102.042692-102.00174 268.098821 0.046071 370.167108 49.357662 49.373019 115.085974 76.560174 185.083554 76.560174h0.010238c69.961747 0 135.664464-27.171797 184.996531-76.514102 102.022216-102.042692 102.00174-268.093702-0.046071-370.16199z m-27.391916 343.312691c-42.016977 41.648407-97.978184 64.581649-157.573901 64.58165-59.616193 0-115.602995-22.9486-157.645567-64.617483-42.022096-41.653526-65.165219-97.118188-65.165219-156.176407 0-59.037743 23.127766-114.476809 65.124266-156.109859 42.016977-41.643288 97.978184-64.581649 157.568782-64.581649 59.621312 0 115.613233 22.953719 157.650687 64.62772 42.027215 41.658645 65.165219 97.123307 65.165218 156.181526 0 59.032624-23.127766 114.461452-65.124266 156.094502z m-198.20874-91.763685l-71.164719-74.7378-34.604625 34.614864 91.343924 95.920335 0.752498-0.752497 11.149241 13.381137 189.204371-193.509473-29.618692-35.546526z" fill="#272636" p-id="51465"></path></svg>
