<svg t="1697263845684" class="icon" viewBox="0 0 1024 1024" version="1.1" xmlns="http://www.w3.org/2000/svg" p-id="74288" width="32" height="32"><path d="M899.14 97.53H124.86A109 109 0 0 0 16 206.39v611.22a109 109 0 0 0 108.86 108.86h774.28A109 109 0 0 0 1008 817.61V206.39A109 109 0 0 0 899.14 97.53zM124.86 145h774.28a61.42 61.42 0 0 1 61.35 61.35v444.91L848.35 539.15a73.52 73.52 0 0 0-103.93 0L612.84 670.7 368 425.81a73.52 73.52 0 0 0-103.93 0L63.51 626.31V206.39A61.42 61.42 0 0 1 124.86 145z m774.28 734H124.86a61.42 61.42 0 0 1-61.35-61.35V693.5l234.14-234.14a26 26 0 0 1 36.75 0l345.9 346a23.75 23.75 0 0 0 33.59-33.59l-67.46-67.46L778 572.72a26 26 0 0 1 36.75 0L958 715.92a23.85 23.85 0 0 0 2.53 2.17v99.54A61.42 61.42 0 0 1 899.14 879z" p-id="74289"></path><path d="M622.73 458.43A97.46 97.46 0 1 0 525.27 361a97.46 97.46 0 0 0 97.46 97.43z m0-147.41a50 50 0 1 1-50 50 50 50 0 0 1 50-50.02z" p-id="74290"></path></svg>
