<svg t="1697263815818" class="icon" viewBox="0 0 4608 1024" version="1.1" xmlns="http://www.w3.org/2000/svg" p-id="70584" width="32" height="32"><path d="M3266.56 773.12h327.68v-102.4h-327.68v-102.4H3584V35.84h-737.28v532.48h317.44v102.4h-327.68v102.4h327.68v112.64h-353.28v102.4h814.08v-102.4h-353.28V773.12z m10.24-634.88h215.04v112.64H3276.8V138.24z m0 215.04h215.04V460.8H3276.8V353.28zM3174.4 460.8h-215.04V353.28h215.04V460.8z m0-209.92h-215.04V138.24h215.04v112.64zM537.6 445.44h537.6v122.88H537.6z" p-id="70585"></path><path d="M1341.44 5.12H988.16L1075.2 128l256 81.92c46.08 15.36 76.8 61.44 76.8 107.52v389.12c0 46.08-30.72 92.16-76.8 107.52l-256 81.92-87.04 122.88h353.28c148.48 0 266.24-117.76 266.24-266.24V276.48c0-148.48-117.76-271.36-266.24-271.36zM276.48 814.08c-46.08-15.36-76.8-61.44-76.8-107.52V317.44c0-46.08 30.72-92.16 76.8-107.52l256-81.92L619.52 5.12H266.24C117.76 5.12 0 128 0 276.48v471.04C0 896 117.76 1013.76 266.24 1013.76h353.28l-87.04-122.88-256-76.8z m2216.96-563.2h-261.12v537.6h261.12v-537.6z m-107.52 430.08h-56.32V353.28h56.32v327.68z m-537.6 307.2h102.4V138.24h107.52l-61.44 281.6v102.4h61.44v225.28c0 15.36-10.24 25.6-25.6 25.6h-25.6v102.4h51.2c56.32 0 102.4-46.08 102.4-102.4v-358.4h-61.44l61.44-281.6V30.72h-312.32v957.44z" p-id="70586"></path><path d="M2206.72 138.24H2560v660.48c0 46.08-35.84 87.04-87.04 87.04h-76.8v102.4h107.52c87.04 0 163.84-71.68 163.84-163.84V138.24h35.84V35.84h-496.64v102.4zM3763.2 40.96h737.28v102.4H3763.2z m778.24 486.4v-102.4h-814.08v102.4h204.8l-163.84 358.4v102.4h691.2c30.72 0 51.2-25.6 51.2-51.2 0-10.24 0-15.36-5.12-20.48l-87.04-194.56h-112.64l76.8 163.84h-496.64l163.84-358.4h491.52z" p-id="70587"></path></svg>
