<svg t="1697263119898" class="icon" viewBox="0 0 1088 1024" version="1.1" xmlns="http://www.w3.org/2000/svg" p-id="42325" width="32" height="32"><path d="M773.41504 319.616c42.496 36.224 62.912 92.288 58.048 158.08-8.064 107.904-69.632 211.968-172.8 293.12a612.096 612.096 0 0 1-193.536 101.44A484.48 484.48 0 0 1 318.88704 896a429.44 429.44 0 0 1-88.192-9.152 700.288 700.288 0 0 1-84.416-23.232c-21.184-7.168-74.176-34.944-76.288-35.968a10.496 10.496 0 0 1-5.696-10.944 10.88 10.88 0 0 1 8.896-8.704l12.992-2.56 13.76-2.688a1246.272 1246.272 0 0 0 87.232-19.968c41.6-12.288 74.176-29.12 99.456-51.008 59.904-52.032 100.8-142.592 121.216-269.12a274.112 274.112 0 0 1 62.336-133.376c33.6-37.952 81.728-61.184 135.744-64.768a235.52 235.52 0 0 1 167.488 55.04z m-165.824-33.92c-47.872 3.328-90.624 23.424-120.192 57.152a249.216 249.216 0 0 0-57.216 122.88c-9.408 58.176-22.336 107.136-39.808 150.208-22.336 55.68-52.16 99.776-88.448 131.392-27.968 24.192-63.168 42.304-108.032 55.552-23.104 6.912-59.968 14.848-86.016 19.904 16.128 8.192 35.712 17.344 45.952 20.672 27.712 9.472 55.104 17.088 81.728 22.4 72 14.848 144.896 10.496 222.528-13.696a593.024 593.024 0 0 0 186.24-97.728c98.688-77.504 157.056-176.448 164.864-278.208 4.48-59.2-13.44-109.184-50.56-140.8a213.184 213.184 0 0 0-151.04-49.728z m-24 395.52c4.864 3.584 5.696 10.24 1.92 15.104-39.04 47.168-92.16 79.04-130.368 97.664a446.208 446.208 0 0 1-73.92 29.312 10.112 10.112 0 0 1-2.944 0.512 11.136 11.136 0 0 1-10.752-7.68c-1.92-5.568 1.6-11.456 7.488-13.248 1.344-0.256 123.136-35.2 192.768-119.808a11.84 11.84 0 0 1 15.808-1.792z m137.92-187.136c6.208 0.512 10.752 5.888 9.984 11.712-0.256 1.536-4.032 35.2-31.168 71.936a11.52 11.52 0 0 1-9.152 4.352 11.712 11.712 0 0 1-6.464-1.792 10.048 10.048 0 0 1-2.688-14.784c23.68-32.128 27.136-61.76 27.136-62.016 0.576-5.824 6.208-9.92 12.352-9.408z m20.48-291.84c23.36 7.68 42.688 21.76 54.784 39.808 12.672 18.88 15.872 39.552 8.896 58.432a61.888 61.888 0 0 1-8.896 15.808 10.688 10.688 0 0 1-8.832 4.352 12.928 12.928 0 0 1-6.72-2.048c-5.12-3.584-6.208-10.24-2.432-14.784a36.16 36.16 0 0 0 5.632-10.496c4.608-12.48 2.176-26.752-6.72-39.744a82.624 82.624 0 0 0-43.264-31.104c-18.56-6.144-37.888-6.4-54.272-1.024-15.616 5.12-26.624 14.72-31.232 27.264a11.52 11.52 0 0 1-14.208 6.656 10.624 10.624 0 0 1-7.04-13.568c7.04-18.816 22.912-33.152 45.184-40.512a112.32 112.32 0 0 1 69.12 1.024z m39.488-73.152c5.632 2.56 7.808 8.96 5.12 14.272l-21.248 41.6a12.224 12.224 0 0 1-10.24 5.824 11.008 11.008 0 0 1-4.8-1.024 10.368 10.368 0 0 1-5.12-14.272l21.248-41.6c2.688-5.312 9.408-7.36 15.04-4.8z" fill="#231815" p-id="42326"></path></svg>
