<svg t="1697262841898" class="icon" viewBox="0 0 1024 1024" version="1.1" xmlns="http://www.w3.org/2000/svg" p-id="35869" width="32" height="32"><path d="M499.657 384.57c-9.597 0-18.747-5.565-22.859-14.913-5.552-12.618 0.176-27.348 12.794-32.899l205.94-90.614c12.621-5.552 27.348 0.177 32.899 12.794 5.552 12.618-0.177 27.348-12.794 32.899l-205.941 90.614a24.887 24.887 0 0 1-10.039 2.119zM689.088 821.16a24.849 24.849 0 0 1-14.27-4.498l-190.78-133.228c-11.302-7.893-14.066-23.452-6.173-34.755 7.892-11.301 23.452-14.065 34.754-6.173L703.4 775.734c11.302 7.893 14.065 23.452 6.173 34.755-4.853 6.949-12.606 10.671-20.485 10.671z" fill="#666666" p-id="35870"></path><path d="M812.673 351.613c-77.354 0-140.286-62.932-140.286-140.286S735.318 71.04 812.673 71.04 952.96 133.972 952.96 211.327s-62.933 140.286-140.287 140.286z m0-230.653c-49.828 0-90.366 40.539-90.366 90.367s40.538 90.366 90.366 90.366 90.367-40.538 90.367-90.366-40.539-90.367-90.367-90.367zM755.01 952.96c-59.186 0-107.336-48.15-107.336-107.336s48.15-107.336 107.336-107.336 107.336 48.15 107.336 107.336S814.195 952.96 755.01 952.96z m0-164.752c-31.659 0-57.416 25.757-57.416 57.416s25.757 57.416 57.416 57.416 57.416-25.757 57.416-57.416-25.757-57.416-57.416-57.416zM322.535 763.495c-67.177 0-130.333-26.16-177.833-73.661S71.04 579.177 71.04 512s26.16-130.332 73.661-177.833 110.657-73.661 177.833-73.661 130.333 26.16 177.833 73.661S574.029 444.823 574.029 512s-26.16 130.333-73.661 177.834-110.657 73.661-177.833 73.661z m0-453.069c-111.149 0-201.575 90.426-201.575 201.574 0 111.149 90.426 201.575 201.575 201.575S524.109 623.149 524.109 512c0-111.149-90.425-201.574-201.574-201.574z" fill="#666666" p-id="35871"></path><path d="M394.346 568.403H338.3v102.286h-33.269V568.403h-54.307v-28.707h54.307v-52.568h-54.307v-29.42h42.049l-42.049-104.396h34.323l39.255 99.15 37.83-99.15h32.214l-40.282 104.396h40.282v29.42H338.3v52.568h56.046v28.707z" fill="#666666" p-id="35872"></path></svg>
