<svg t="1697261624027" class="icon" viewBox="0 0 1024 1024" version="1.1" xmlns="http://www.w3.org/2000/svg" p-id="9431" width="32" height="32"><path d="M874.666667 426.666667c12.8 0 21.333333 8.533333 21.333333 21.333333s-8.533333 21.333333-21.333333 21.333333h-128c-12.8 0-21.333333-8.533333-21.333334-21.333333s8.533333-21.333333 21.333334-21.333333h128zM469.333333 170.666667C375.466667 170.666667 298.666667 247.466667 298.666667 341.333333s76.8 170.666667 170.666666 170.666667 170.666667-76.8 170.666667-170.666667-76.8-170.666667-170.666667-170.666666z m405.333334 341.333333c12.8 0 21.333333 8.533333 21.333333 21.333333s-8.533333 21.333333-21.333333 21.333334h-170.666667c-12.8 0-21.333333-8.533333-21.333333-21.333334s8.533333-21.333333 21.333333-21.333333h170.666667zM469.333333 128c119.466667 0 213.333333 93.866667 213.333334 213.333333s-93.866667 213.333333-213.333334 213.333334-213.333333-93.866667-213.333333-213.333334 98.133333-213.333333 213.333333-213.333333z m405.333334 469.333333c12.8 0 21.333333 8.533333 21.333333 21.333334s-8.533333 21.333333-21.333333 21.333333h-42.666667c-12.8 0-21.333333-8.533333-21.333333-21.333333s8.533333-21.333333 21.333333-21.333334h42.666667zM682.666667 640H256c-46.933333 0-85.333333 38.4-85.333333 85.333333s34.133333 81.066667 81.066666 85.333334H682.666667c46.933333 0 85.333333-38.4 85.333333-85.333334s-34.133333-81.066667-81.066667-85.333333H682.666667z m0-42.666667c72.533333 0 128 55.466667 128 128s-55.466667 128-128 128H256c-72.533333 0-128-55.466667-128-128s55.466667-128 128-128h426.666667z" p-id="9432"></path></svg>
