<svg t="1697264793389" class="icon" viewBox="0 0 1024 1024" version="1.1" xmlns="http://www.w3.org/2000/svg" p-id="110299" width="32" height="32"><path d="M955.904 887.296H68.096C30.72 887.296 0 857.088 0 819.2V102.4c0-37.888 30.72-68.096 68.096-68.096h887.296c37.888 0 68.096 30.72 68.096 68.096v716.8c0.512 37.888-30.208 68.096-67.584 68.096z m0-751.104c0-18.944-15.36-34.304-34.304-34.304H102.4c-18.944 0-34.304 15.36-34.304 34.304v648.192c0 18.944 15.36 34.304 34.304 34.304h819.712c18.944 0 34.304-15.36 34.304-34.304V136.192h-0.512zM832 417.792c-10.752 0-20.992-2.56-30.208-7.68L697.856 519.168c14.848 31.744 1.536 69.632-30.208 84.48-15.36 7.168-33.28 8.192-49.664 2.048l-16.384-8.704c-5.632-4.096-10.24-8.704-14.336-14.336l-171.52-174.08c-19.968 12.288-44.544 12.288-64.512 0L247.296 514.56c5.12 9.216 8.192 19.968 8.192 30.72 0 35.328-28.672 64-64 64-10.24 0-17.92-2.048-24.064-5.12-6.144-2.56-19.968-7.68-30.72-26.624-8.704-16.896-7.68-18.944-9.216-32.256 0-35.328 28.672-64 64-64 11.264 0 22.016 3.072 31.232 8.704l104.96-105.472c-5.12-9.216-7.68-19.456-7.68-30.208 0-35.328 28.672-64 64-64s64 28.672 64 64c0 10.24-2.56 20.992-7.68 30.208l139.264 141.312c11.264-33.28 47.104-51.2 80.384-40.448 5.632 2.048 11.264 4.608 16.384 8.192l100.864-106.496c-19.456-32.256-7.168-74.752 28.16-91.136 26.624-12.288 59.392-4.096 77.312 18.944 23.552 30.72 14.336 74.24-17.92 93.696-9.728 6.144-20.992 9.216-32.768 9.216zM325.12 921.088h408.576c9.728 0 17.92 8.192 17.92 17.92v33.28c0 9.728-8.192 17.92-17.92 17.92H325.12c-9.728 0-17.92-8.192-17.92-17.92v-33.28c0-9.728 8.192-17.92 17.92-17.92z" p-id="110300"></path></svg>
