<svg t="1699885612920" class="icon" viewBox="0 0 1024 1024" version="1.1" xmlns="http://www.w3.org/2000/svg" p-id="11694" width="32" height="32"><path d="M521.4 222.5c-2.9 1-6.1 1.6-9.4 1.6s-6.5-0.6-9.4-1.6c6.2-0.5 12.5-0.5 18.8 0z" fill="" p-id="11695"></path><path d="M780.6 442.8L593.8 255.9c-10.5-10.5-22.4-18.5-35.2-24.1 7.8-10 12.4-22.5 12.4-36.1 0-32.5-26.4-58.9-58.9-58.9s-58.9 26.4-58.9 58.9c0 13.6 4.6 26.1 12.4 36.1-12.8 5.6-24.8 13.6-35.2 24.1l-187 186.9c-63.5 0.3-115 52.1-115 115.6v213.1c0 63.8 51.9 115.6 115.6 115.6h536c63.8 0 115.7-51.9 115.7-115.6V558.4c0-63.5-51.6-115.3-115.1-115.6zM512 167.4c15.6 0 28.4 12.7 28.4 28.4 0 12.4-7.9 22.9-19 26.8-2.9 1-6.1 1.6-9.4 1.6s-6.5-0.6-9.4-1.6c-11.1-3.9-19-14.4-19-26.8 0-15.7 12.7-28.4 28.4-28.4z m-60.2 110.1c13.6-13.6 30.6-21.6 48.3-24 7.9-1.1 15.9-1.1 23.8 0 17.7 2.5 34.7 10.5 48.3 24.1l165.2 165.2H286.6l165.2-165.3z m413.3 494c0 46.9-38.2 85.1-85.1 85.1H244c-46.9 0-85.1-38.2-85.1-85.1V558.4c0-46.9 38.2-85.1 85.1-85.1h536c46.9 0 85.1 38.2 85.1 85.1v213.1z" fill="" p-id="11696"></path><path d="M507.3 750.4c0 8.4-6.8 15.3-15.3 15.3H237.9c-8.4 0-15.3-6.8-15.3-15.3 0-8.4 6.8-15.3 15.3-15.3H492c8.5 0 15.3 6.9 15.3 15.3zM783.5 579.5c0 8.4-6.8 15.3-15.3 15.3H237.9c-8.4 0-15.3-6.8-15.3-15.3 0-8.4 6.8-15.3 15.3-15.3h530.4c8.4 0 15.2 6.9 15.2 15.3z" fill="" p-id="11697"></path></svg>
