<svg t="1697261707959" class="icon" viewBox="0 0 1024 1024" version="1.1" xmlns="http://www.w3.org/2000/svg" p-id="10449" width="32" height="32"><path d="M853.2 319.95V202.635c0-17.67-14.325-31.995-31.995-31.995h-618.57c-17.67 0-31.995 14.325-31.995 31.995v618.57c0 17.67 14.325 31.995 31.995 31.995h618.57c17.67 0 31.995-14.325 31.995-31.995V703.89H554.58c-106.022 0-191.97-85.948-191.97-191.97s85.948-191.97 191.97-191.97H853.2z m0 63.99H554.58c-70.681 0-127.98 57.299-127.98 127.98 0 70.681 57.299 127.98 127.98 127.98H853.2V383.94zM554.58 554.58c-23.56 0-42.66-19.1-42.66-42.66 0-23.56 19.1-42.66 42.66-42.66 23.56 0 42.66 19.1 42.66 42.66 0 23.56-19.1 42.66-42.66 42.66zM202.635 106.65h618.57c53.011 0 95.985 42.974 95.985 95.985v618.57c0 53.011-42.974 95.985-95.985 95.985h-618.57c-53.011 0-95.985-42.974-95.985-95.985v-618.57c0-53.011 42.974-95.985 95.985-95.985z" fill="#000000" p-id="10450"></path></svg>
