<svg t="1697262414317" class="icon" viewBox="0 0 1024 1024" version="1.1" xmlns="http://www.w3.org/2000/svg" p-id="26641" width="32" height="32"><path d="M833.6 65.8h-59.5c-16.5 0-35.4 10.1-35.4 26.6s19 32.9 35.4 32.9h59.5c35.4 0 59.5 24 59.5 59.5v684.7c0 35.4-24 59.5-59.5 59.5H193.2c-35.4 0-74.7-24-74.7-59.5V184.8c0-35.4 24-59.5 59.5-59.5h74.7c16.5 0 22.8-16.5 22.8-32.9s-6.3-26.6-22.8-26.6H178C94.5 65.8 59 117.7 59 186v677.1c0 73.4 44.3 125.3 125.3 125.3h642.9c81 0 125.3-43 125.3-125.3V186c0.1-68.3-41.7-120.2-118.9-120.2zM252.7 334.1c0 16.5 13.9 30.4 30.4 30.4h446.7c16.5 0 30.4-13.9 30.4-30.4s-13.9-30.4-30.4-30.4H283.1c-16.5 0.1-30.4 14-30.4 30.4z m475.8 134.2H283.1c-16.5 0-30.4 13.9-30.4 30.4s13.9 30.4 30.4 30.4h446.7c16.5 0 30.4-13.9 30.4-30.4-1.3-17.7-15.2-30.4-31.7-30.4z m0 178.4H283.1c-16.5 0-30.4 13.9-30.4 30.4s13.9 30.4 30.4 30.4h446.7c16.5 0 30.4-13.9 30.4-30.4-1.3-17.7-15.2-30.4-31.7-30.4zM403.3 140.5h207.6c24 0 44.3-24 44.3-51.9S635 36.7 609.6 36.7H403.3c-25.3 0-45.6 24-45.6 51.9s20.3 51.9 45.6 51.9z" p-id="26642"></path></svg>
