<svg t="1697264778021" class="icon" viewBox="0 0 1024 1024" version="1.1" xmlns="http://www.w3.org/2000/svg" p-id="108313" width="32" height="32"><path d="M647.488 57.76c121.888 31.392 220.384 96.64 287.616 204.32 55.776 89.344 73.408 186.592 52.576 290.24-13.44 66.848-43.136 125.984-86.496 178.272-10.112 12.256-16.704 25.696-13.92 41.152 3.232 17.536 7.424 35.296 14.208 51.712 15.008 36.192 39.264 66.848 62.368 98.112 4.864 6.592 10.176 14.496 11.008 22.24 2.24 22.752-16.32 40.576-40.864 41.184-45.312 1.152-86.944-12.736-125.728-34.112-39.648-21.856-77.6-46.72-116.608-69.824a20.608 20.608 0 0 0-14.784-1.984c-75.712 24-152.672 30.368-231.168 17.952-103.008-16.288-192.928-59.264-267.328-132.672C104.32 691.232 60.8 602.56 54.496 498.144c-7.072-117.024 31.808-218.88 111.872-303.808 96.928-102.784 218.816-149.12 358.592-151.616 41.6-0.128 82.464 4.704 122.528 15.04z m245.536 835.392c-20.096-30.944-38.528-62.816-45.6-99.68-6.336-32.768-0.32-62.016 21.824-88.736 59.328-71.552 89.568-154.144 84.832-247.392-5.76-114.464-57.856-205.696-146.272-276.768-63.904-51.392-137.568-81.952-218.56-91.84-143.808-17.536-272.064 18.464-378.624 119.296-65.12 61.664-104.992 137.824-113.376 227.488-12.672 135.84 40 245.056 144.512 329.92 66.368 53.952 143.68 83.264 228.64 93.216 72.416 8.544 142.72-0.032 211.36-23.712 6.496-2.24 10.912-1.472 16.736 1.984 47.552 28 94.944 56.288 143.296 82.88a198.176 198.176 0 0 0 86.336 24.256c-12.384-17.888-24.192-34.08-35.104-50.912z" p-id="108314"></path><path d="M675.328 661.728a349.28 349.28 0 0 1-101.824 55.648c-14.016 4.832-25.44 0.864-29.728-10.72-4.576-12.192 1.6-23.072 16.16-27.968a301.248 301.248 0 0 0 76.256-38.656c2.752-1.92 5.312-4.032 7.744-5.92-13.12-16.032-25.984-31.392-38.432-47.136a180.544 180.544 0 0 1-14.24-21.216c-6.88-11.616-3.936-24.16 6.56-30.08 10.56-5.984 20.928-2.208 28.928 8.672 13.76 18.624 28.192 36.704 42.432 54.944 1.984 2.624 4.736 4.672 7.136 6.944 25.44-20.288 59.808-77.888 67.136-112.704H567.52c-15.136 0-23.936-7.52-23.968-20.384-0.032-12.864 8.768-20.48 23.84-20.512h101.056c0-13.792-0.064-26.656 0.064-39.52 0.064-13.6 8.64-22.816 20.8-22.656 11.872 0.16 19.936 9.056 20 22.336 0.128 12.896 0.064 25.792 0.064 39.84h37.312c21.504 0 43.008-0.096 64.512 0.032 13.12 0.096 21.44 8.48 21.248 20.864-0.256 11.84-8.512 19.712-21.248 19.968-7.808 0.128-15.616 0-24 0-15.424 53.344-42.112 99.872-82.112 141.792 24.512 14.656 48.064 28.192 70.944 42.784 6.048 3.84 12.864 10.24 14.304 16.64 1.312 5.856-2.624 14.528-7.072 19.584-5.824 6.72-15.2 6.592-22.688 2.048-24.992-15.136-49.696-30.816-74.432-46.4-3.776-2.336-7.008-5.312-10.816-8.224zM464.832 536a20.896 20.896 0 0 1-16.544 21.504 19.648 19.648 0 0 1-23.488-13.184 2263.552 2263.552 0 0 1-22.048-63.616c-1.952-5.92-4.576-7.84-10.752-7.776-27.296 0.352-54.592 0.32-81.888 0.032-6.016-0.064-8.928 1.504-10.912 7.552-6.592 20.384-13.952 40.512-20.992 60.736-4.8 13.824-15.392 19.84-27.392 15.584-11.36-4-16.096-15.552-11.584-28.608l90.912-262.08c4.8-13.856 10.368-18.656 21.152-18.4 11.904 0.256 16.96 7.968 20.48 18.112 30.176 87.424 60.544 174.784 90.848 262.208 0.992 2.912 1.664 5.92 2.208 7.936z m-112.64-201.376l-2.496 0.064-33.536 97.184h69.664l-33.632-97.248z" p-id="108315"></path></svg>
