<svg t="1697264567424" class="icon" viewBox="0 0 1024 1024" version="1.1" xmlns="http://www.w3.org/2000/svg" p-id="105412" width="32" height="32"><path d="M514.048 936.96c-68.608 0-136.192-15.872-197.12-46.592-24.064 6.656-61.44 15.872-97.28 25.088-19.456 5.12-38.912 9.728-56.32 14.336-19.968 5.12-40.96-0.512-56.32-14.336-14.848-14.336-21.504-34.816-17.408-55.296 9.216-44.032 16.384-89.088 23.04-124.928 2.56-15.36 5.12-29.696 7.168-41.472-34.816-69.632-50.688-148.48-45.568-226.816 13.824-225.792 203.776-406.016 430.08-410.624 120.832-2.56 233.984 43.52 319.488 129.024s131.072 198.656 129.024 319.488l-29.696-0.512 29.696 0.512c-4.096 227.328-185.344 416.256-411.136 430.592-9.216 1.024-18.432 1.536-27.648 1.536z m-197.12-106.496c9.216 0 18.432 2.048 27.136 6.656 59.904 29.696 127.488 43.52 194.56 38.912 195.584-12.288 351.744-176.128 355.328-372.224 2.048-104.448-37.376-202.752-111.104-275.968S611.328 114.688 506.88 116.736c-196.608 3.072-359.936 158.72-372.736 354.304-4.608 68.096 9.216 135.68 39.424 195.584 6.144 11.776 8.192 25.088 5.632 37.888-2.048 11.264-4.608 25.6-7.168 40.96-6.144 36.352-13.824 81.92-23.04 126.464 17.408-4.608 36.864-9.728 56.32-14.336 35.328-9.216 72.192-17.92 95.744-24.576 4.608-2.048 10.24-2.56 15.872-2.56z" fill="#666666" p-id="105413"></path><path d="M513.536 758.784c-119.808 0-217.088-97.28-217.088-217.088h59.904c0 87.04 70.144 157.184 157.184 157.184s157.184-70.144 157.184-157.184h59.904c0 119.808-97.28 217.088-217.088 217.088z" fill="#666666" p-id="105414"></path></svg>
