<svg t="1697262043423" class="icon" viewBox="0 0 1024 1024" version="1.1" xmlns="http://www.w3.org/2000/svg" p-id="14894" width="32" height="32"><path d="M534.828313 373.110827a68.575259 68.575259 0 1 0 0.04516 137.060198 68.575259 68.575259 0 0 0-0.04516-137.060198z m-228.48635 0a68.575259 68.575259 0 1 0 0.045159 137.150518 68.575259 68.575259 0 0 0-0.045159-137.150518zM923.270915 53.220904H100.706505A91.380992 91.380992 0 0 0 9.325513 144.601896V692.97817a91.380992 91.380992 0 0 0 91.380992 91.380992h228.486351v228.486351l304.648467-228.486351h289.407012a91.426152 91.426152 0 0 0 91.403572-91.380992V144.624476a91.380992 91.380992 0 0 0-91.380992-91.403572z m45.701786 594.07806a91.426152 91.426152 0 0 1-91.403572 91.403572H618.599868L374.894642 921.4871v-182.784564H146.408291a91.403572 91.403572 0 0 1-91.380992-91.403572V190.326262a91.380992 91.380992 0 0 1 91.380992-91.380992h731.160838a91.448732 91.448732 0 0 1 91.403572 91.380992v456.972702z m-205.658037-274.188137a68.575259 68.575259 0 1 0 0.06774 137.127938 68.575259 68.575259 0 0 0-0.06774-137.127938z" fill="#203646" p-id="14895"></path></svg>
