<svg t="1697262350998" class="icon" viewBox="0 0 1024 1024" version="1.1" xmlns="http://www.w3.org/2000/svg" p-id="23542" width="32" height="32"><path d="M744.3 891.4c7 7.8 14.3 8.8 22.6 7.3 16.6-2.8 28.9-12.6 40.5-23.6 12.1-11.6 24.9-21.9 41-27.9 21.4-7.5 43-7 64.1-2 28.9 6.8 53.6 22.9 75.7 42.2 10.6 9.3 20.6 19.4 31.2 28.9 4.3 3.8 6.3 7.8 3 14.8-15.1 7.5-31.7 6.3-46.8-2-11.3-6-20.9-15.1-31.2-22.9-8.6-6.5-16.6-14.1-25.4-20.1-18.6-12.3-38.5-11.8-56.8-1-19.4 11.3-37.5 24.9-56.1 37.5-10.8 7.3-22.9 12.3-35.7 14.8-14.6 2.8-28.7-1.3-41-8.3-15.1-8.8-28.9-19.6-43.5-29.2-6.5-4.3-13.3-8.6-20.1-12.6-23.6-13.3-46.5-10.6-68.1 5-10.1 7.3-20.1 15.1-29.9 22.9-24.4 19.1-52.3 23.6-81.7 17.1-13.3-2.8-25.6-9.6-36.5-18.6-11.1-9.3-22.6-18.6-34.4-26.9-15.6-10.8-32.7-10.1-48.8-1.8-12.6 6.5-23.9 15.1-35.7 23.1-25.9 18.1-54.1 28.4-86 22.9-28.9-4.8-54.6-16.3-73.2-39.7-16.8-21.1-36.2-20.4-55.8-13.3-16.1 5.8-29.4 15.8-42.2 26.4C60.9 914.7 47.6 924 32.3 930c-9.6 3.8-19.4 4.3-28.9 1.5-5.8-14.3-4.5-21.4 7-29.9 20.1-14.8 41-28.7 61.3-43.2 4.8-3.3 9.1-7.3 14.6-11.6-2.5-4.5-4.5-8.3-7-12.1C72.8 825 67.2 815 68 802.4c0.8-17.1 9.6-27.4 26.7-29.2 24.1-2.3 48.3-3.8 72.4-5.5 33.4-2.3 66.6-4.3 100.1-6.3 22.9-1.3 46-2 68.9-3.8 58.1-3.8 115.9-8 173.7-11.8 21.4-1.5 42.5-1.8 63.9-3 59.3-3.8 118.4-8 177.5-12.1 17.6-1.3 35.2-1.5 52.5-2.5 44.2-2.5 88.5-5.5 132.8-8 4.3-0.3 8.3-0.5 12.6 0 13.6 1.8 19.6 13.1 12.6 24.6-4.8 7.8-10.3 15.8-17.6 20.9-34.5 23.6-69.1 46.8-104.3 69.1-29.4 18.4-59.6 34.9-89.5 52.5-1.7 0.8-3.2 2.1-6 4.1z m137.3-127.2c-0.3-1-0.5-1.8-0.8-2.8-5-0.3-10.3-1-15.3-0.5-15.8 1-31.7 2.8-47.5 3.8-40.5 2.8-81 5.3-121.2 7.8-39.2 2.5-78.4 5-117.7 7.3-42 2.5-84.2 5.3-126.2 7.8-36.7 2.3-73.4 4.8-110.1 7-57.1 3.5-114.1 6.8-171.5 10.3-9.1 0.5-18.4 1-27.4 2.8-7.3 1.5-15.3 2.3-21.9 9.1 4.5 3.5 8.3 6.8 12.6 9.6 31.2 19.4 62.1 39.2 93.5 57.8 11.3 6.8 23.9 11.8 38 11.1 12.6-0.8 23.6-5.8 33.7-12.1 18.9-11.6 36.5-25.1 55.3-36.2 17.3-10.1 36.5-15.8 56.1-5.8 12.1 6.3 24.1 13.1 35.7 20.4 15.1 9.6 28.9 21.4 44.8 29.7 14.3 7.8 31.2 8.3 45.5-0.8 12.8-8.3 24.4-18.9 36.2-28.7 23.1-18.9 49-28.7 78.9-20.9 12.1 3 23.4 8.3 34.9 12.8 14.6 5.8 29.2 6 43.7 0 6.8-3 13.6-6.5 20.4-9.8 42.2-19.6 81.2-44 119.4-70.4 4.1-2.5 7.4-6.3 10.9-9.3zM127.6 735.5c6.8-10.6 11.6-18.1 16.6-25.6 22.1-33.2 40.2-68.1 53.1-106.1 7-21.4 14.6-42.7 19.4-64.6 5-22.4 7.8-45.3 10.1-68.1 3.3-32.4 3-65.1 0.8-97.8-2-29.2-7.3-57.8-13.8-86.5-6-26.9-14.8-53.1-25.6-78.4-13.1-30.4-28.9-59.3-47.5-86.5-7-10.3-7.8-18.6-2.5-26.7 5-7.5 18.6-12.8 27.9-8.8 20.9 8.5 41.5 17.6 61.3 27.9 37.2 19.1 72.2 42 105.6 66.9 42.5 31.4 81.7 66.1 118.2 104.3 31.9 33.7 61.1 69.6 87.7 107.6 23.9 34.2 46 69.6 64.1 107.4 15.3 32.2 29.9 65.1 43.2 98.3 8 20.4 13.8 42 18.9 63.6 2 9.1 1.3 19.4-0.8 28.4-3.8 17.1-20.4 25.1-36.7 18.6-29.2-11.6-58.6-22.1-89.3-28.9-19.1-4.3-38.5-8-58.1-9.8-38.5-3.5-76.9-3.8-115.2 0-35.7 3.8-71.2 11.1-105.1 23.1-25.9 9.1-50.5 21.6-75.9 32.4-13.3 5.8-26.4 12.8-41.7 11.3-3.9-0.2-7.7-1-14.7-2z m79.7-585.6c-0.3 3.8-0.5 4.5-0.3 5.3 16.3 43.2 32.7 86.5 44.8 131.2 9.6 35.2 14.3 71.2 17.9 107.4 3.3 34.2 1.5 68.4-3.8 102.3-3.3 20.6-6 41.5-11.1 61.6-6.8 26.1-14.6 52.3-26.4 76.7-4.8 9.8-8.3 20.4-13.1 32.9 5.3-1.5 8.5-2 11.6-3 18.9-5.8 37.2-12.3 56.3-16.8 19.4-4.8 39.5-7.3 59.1-11.1 46-8.5 92.5-6.3 138.8-3.3 21.9 1.5 43.7 6.8 65.4 11.6 20.4 4.5 40.2 10.8 60.3 16.1 5 1.3 10.1 1.8 15.1 2.8 0.5-3 1.3-4.3 1-5.3-4.5-15.6-8-31.7-13.8-46.8-10.8-28.4-22.6-56.6-34.9-84.2-21.4-47.8-49.5-91.8-80.7-133.8-42.2-56.8-91.5-107.1-146.3-152.4-40.2-33.2-84-61.8-129-88-2.9-1.4-6.7-1.9-10.9-3.2z" p-id="23543"></path><path d="M441.3 181.9c4.8 2 13.8 4.3 21.6 8.8 61.6 34.2 117.9 75.7 169 124 50.8 48.3 95.5 101.6 133.5 160.4 25.1 39 47 79.7 65.4 122.2 11.8 27.7 23.1 55.3 31.2 84.5 0.8 3.3 2.3 6.8 1.5 9.8-3.3 15.6-10.8 21.6-25.9 14.3-19.6-9.6-39.7-15.1-61.1-16.6-9.6-0.8-19.1-0.3-28.7 1-18.6 2.3-30.9-6.3-38.7-21.6-6.5-12.8-10.8-26.9-16.1-40.5-5.8-15.3-10.8-30.7-16.6-45.8-6-15.8-12.1-31.9-19.4-47.5-14.6-31.4-29.4-62.6-45-93.5-19.1-38.2-42.7-73.4-69.1-106.9-33.4-42.5-71.7-80.2-116.7-110.9-1-0.8-2-1.5-3-2.3-10.6-7.5-13.3-14.3-10.1-24.1 3.6-9.8 13.4-15.8 28.2-15.3z m373.2 470.9c-1.5-5-2.3-8.8-3.8-12.1-6-14.1-12.3-28.4-18.6-42.2-22.1-48.3-49-93.8-79.7-137-28.2-40-58.8-77.7-93.8-112.4-12.3-12.3-25.1-24.4-37.7-36.7-3-3-5.5-5-9.3-0.5 1.5 2.5 2.5 5.3 4.3 7.5 18.1 26.4 37.2 52.3 54.6 79.2 24.9 38.7 45.5 79.7 62.6 122.2 14.1 34.7 25.9 70.4 38.2 105.8 5.3 15.3 15.1 24.6 31.7 25.9 13.8 1 27.4 1.5 41.2 2 2.5 0.3 5.2-0.7 10.3-1.7z" p-id="23544"></path></svg>
