<svg t="1697264134453" class="icon" viewBox="0 0 1024 1024" version="1.1" xmlns="http://www.w3.org/2000/svg" p-id="85358" width="32" height="32"><path d="M512 28.8C243.2 28.8 28.8 243.2 28.8 512S243.2 998.4 512 998.4 998.4 780.8 998.4 512 780.8 28.8 512 28.8z m0 918.4C272 947.2 76.8 752 76.8 512S272 76.8 512 76.8 947.2 272 947.2 512 752 947.2 512 947.2z" fill="#333333" p-id="85359"></path><path d="M592 582.4l25.6-16c41.6-25.6 64-70.4 64-124.8 0-92.8-64-147.2-169.6-147.2h-150.4c-3.2 0-3.2 3.2-3.2 3.2v425.6c0 3.2 3.2 6.4 3.2 6.4h41.6c3.2 0 3.2-3.2 3.2-6.4v-131.2h115.2v-6.4 3.2h12.8l99.2 134.4 3.2 3.2h51.2c3.2 0 3.2 0 3.2-3.2v-6.4l-99.2-134.4z m35.2-140.8c0 64-41.6 99.2-121.6 99.2h-102.4v-198.4h102.4c80 3.2 121.6 38.4 121.6 99.2z" fill="#333333" p-id="85360"></path></svg>
