<svg t="1697263769005" class="icon" viewBox="0 0 1024 1024" version="1.1" xmlns="http://www.w3.org/2000/svg" p-id="66926" width="32" height="32"><path d="M190.470321 741.970173h341.807407v78.456099H206.885926V821.728395C106.590815 821.728395 25.283951 739.90321 25.283951 638.963358c0-100.939852 81.306864-182.765037 181.601975-182.765037 1.415901 0 2.831802 0.012642 4.241383 0.050568C230.235654 305.859951 357.888 189.62963 512.512 189.62963c112.481975 0 214.136099 62.072099 266.973235 159.68079l-68.456297 37.534024c-39.316543-72.621827-114.864988-118.758716-198.523259-118.758716-124.757333 0-225.886815 101.786864-225.886815 227.340642 0.006321 2.553679 0.006321 2.553679 0.050568 5.101037l1.175704 53.842173-51.282173-15.385284a103.051062 103.051062 0 0 0-29.677037-4.329876c-57.236543 0-103.645235 46.699457-103.645235 104.308938 0 51.983802 37.786864 95.086617 87.22963 103.006815z m585.677432-34.866568l-40.403753 26.339555-86.869333-44.373333V454.08079l138.663506-68.298271 163.486025 79.353679v49.493333l-163.486025-77.893531-90.055111 44.702025v188.175802l78.664691 37.496099zM571.000099 570.355358l48.608395-28.678321v171.90558l110.832197 53.576692 147.595062-89.189136v-81.85679l40.429037 16.83279v88.588642l-188.024099 112.734815-159.440592-74.322173v-169.592099z m260.614321 216.683457l120.926815-72.786173V602.996938L786.899753 527.442173l-58.380642 25.884444V503.845926l58.380642-29.392593L998.716049 573.37679v164.724938l-122.898963 75.712791-44.196345-26.775704z" fill="#999999" p-id="66927"></path></svg>
