<svg t="1698085083457" class="icon" viewBox="0 0 1024 1024" version="1.1" xmlns="http://www.w3.org/2000/svg" p-id="7292" width="32" height="32"><path d="M889.4 183.5H137.5c-19.7 0-35.7-16-35.7-35.7v-1.1c0-19.7 16-35.7 35.7-35.7h751.8c19.7 0 35.7 16 35.7 35.7v1.1c0.1 19.7-15.9 35.7-35.6 35.7zM357 893.7H137.5c-19.7 0-35.7-16-35.7-35.7v-1.1c0-19.7 16-35.7 35.7-35.7H357c19.7 0 35.7 16 35.7 35.7v1.1c0.1 19.7-15.9 35.7-35.7 35.7zM357 531.2H137.5c-19.7 0-35.7-16-35.7-35.7v-1.1c0-19.7 16-35.7 35.7-35.7H357c19.7 0 35.7 16 35.7 35.7v1.1c0.1 19.7-15.9 35.7-35.7 35.7z" p-id="7293"></path><path d="M956.2 656.9c0-26.7 16.2-50.2 41.3-59.8l12.8-4.9-3.4-13.3c-7.4-29.1-18.9-56.9-34.2-82.7l-7-11.8-12.6 5.6c-8.3 3.7-17.3 5.6-26.3 5.6-17 0-33.2-6.7-45.2-18.7-18.9-18.7-24.1-47.2-13.1-71.4l5.6-12.6-11.9-7c-25.8-15.3-53.7-26.8-82.7-34.2l-13.3-3.4-4.9 12.8c-9.4 24.9-33.2 41.4-59.8 41.3-26.7 0-50.1-16.2-59.8-41.3l-4.9-12.8-13.3 3.4c-29 7.4-56.9 18.9-82.7 34.2l-11.8 7 5.6 12.6c11 24.2 5.8 52.7-13.1 71.5-18.8 18.7-47.2 23.9-71.5 13.1l-12.6-5.5-7 11.8c-15.4 25.8-27 53.7-34.3 82.7l-3.3 13.3 12.8 4.9c24.9 9.4 41.4 33.2 41.3 59.8 0 26.7-16.2 50.2-41.3 59.8l-12.8 4.9 3.4 13.3c7.4 29.1 18.9 56.9 34.2 82.7l7 11.8L450 824c8.3-3.7 17.3-5.6 26.3-5.6 17 0 33.1 6.6 45.1 18.7 18.9 18.9 24 46.9 13.1 71.4l-5.6 12.6 11.9 7c25.8 15.3 53.7 26.8 82.7 34.2l13.3 3.4 4.9-12.8c9.4-24.9 33.2-41.3 59.8-41.3 26.7 0 50.2 16.2 59.8 41.3l4.9 12.8 13.3-3.4c29.1-7.4 56.9-18.9 82.7-34.2l11.8-7-5.6-12.6c-11-24.2-5.8-52.7 13.1-71.5 18.9-18.7 47.2-23.9 71.5-13.1l12.6 5.5 7-11.8c15.3-25.8 26.9-53.6 34.3-82.7l3.4-13.4-12.8-4.9c-24.9-9.2-41.4-33.1-41.3-59.7z m-21.8 70.8c-4.6 15.2-10.7 29.9-18.2 43.9-7.1-2-14.4-2.9-21.8-2.9-21.7 0-42.1 8.4-57.4 23.8-20.8 20.7-28.8 51-20.8 79.2-14 7.5-28.7 13.6-43.9 18.2-14.3-25.6-41.4-41.5-70.7-41.3-29.3-0.1-56.4 15.7-70.7 41.3-15.2-4.6-30-10.7-44-18.2 7.7-28.2-0.2-58.4-20.7-79.2-20.7-20.7-51-28.6-79.2-20.8-7.5-14-13.6-28.7-18.2-43.9 25.6-14.3 41.4-41.4 41.3-70.7 0.1-29.3-15.7-56.4-41.3-70.7 4.6-15.2 10.7-30 18.2-44 7.1 1.9 14.3 2.9 21.8 2.9 21.7 0 42.1-8.4 57.4-23.8 20.8-20.7 28.8-51 20.8-79.2 14-7.5 28.7-13.6 43.9-18.2 14.3 25.6 41.4 41.5 70.7 41.3 29.3 0.1 56.4-15.7 70.7-41.3 15.2 4.6 30 10.7 44 18.2-7.7 28.2 0.2 58.4 20.7 79.2 20.7 20.7 51 28.7 79.2 20.8 7.5 14 13.6 28.7 18.2 43.9-25.6 14.3-41.5 41.4-41.3 70.7 0 29.9 15.8 56.5 41.3 70.8z" fill="#4A4A4A" p-id="7294"></path><path d="M704.1 572.4c-44.6 0-80.7 36.2-80.7 80.7 0 44.6 36.2 80.7 80.7 80.7 44.6 0 80.7-36.2 80.7-80.7s-36.1-80.6-80.7-80.7z m0 103.3c-12.4 0-22.5-10.1-22.5-22.5s10.1-22.5 22.5-22.5 22.5 10.1 22.5 22.5c0.1 12.4-10 22.5-22.5 22.5z" fill="#4A4A4A" p-id="7295"></path></svg>
