<svg t="1699980425390" class="icon" viewBox="0 0 1024 1024" version="1.1" xmlns="http://www.w3.org/2000/svg" p-id="4079" width="32" height="32"><path d="M841.322 87.089h-3.9L541.113 167.9v-0.031h-57.292L186.577 86.803h-3.898c-47.329 0-85.833 38.504-85.833 85.834v595.568c0 22.92 8.948 43.111 25.875 58.393 12.931 11.674 30.025 20.311 52.204 26.391 1.558 0.43 156.07 43.113 307.962 83.951l0.956 0.258h55.15l2.121-0.559c154.5-40.689 306.48-82.951 308.012-83.379l1.078-0.322c21.422-6.861 37.787-15.387 50.029-26.064 17.613-15.363 26.922-35.551 26.922-58.381v-595.57c-0.001-47.328-38.505-85.834-85.833-85.834zM190.375 796.848c-35.303-9.676-35.303-22.967-35.303-28.643V172.637c0-14.134 10.678-25.822 24.39-27.421l303.424 82.752v648.673c-146.655-39.502-290.952-79.362-292.511-79.793z m678.553-28.356c0 5.154 0 17.191-35.969 28.826-9.916 2.756-147.693 41.006-291.846 79.1V228.254l303.424-82.751c13.713 1.599 24.391 13.287 24.391 27.421v595.568z" p-id="4080"></path></svg>
