<svg t="1697261940992" class="icon" viewBox="0 0 1070 1024" version="1.1" xmlns="http://www.w3.org/2000/svg" p-id="12498" width="32" height="32"><path d="M847.058824 848.313725H224.627451c-64 0-115.45098-45.176471-115.45098-101.647058V212.078431c0-56.470588 51.45098-101.647059 115.45098-101.647058h84.078431c10.039216 0 18.823529 8.784314 18.82353 18.823529s-8.784314 18.823529-18.82353 18.823529h-84.078431c-42.666667 0-77.803922 28.862745-77.803922 64v533.333334c0 35.137255 35.137255 64 77.803922 64h622.431373c42.666667 0 77.803922-28.862745 77.803921-64V212.078431c0-35.137255-35.137255-64-77.803921-64h-464.313726c-10.039216 0-18.823529-8.784314-18.823529-18.823529s8.784314-18.823529 18.823529-18.823529h464.313726c64 0 115.45098 45.176471 115.45098 101.647058v533.333334c-1.254902 56.470588-52.705882 102.901961-115.45098 102.90196z" fill="#0B3155" p-id="12499"></path><path d="M532.078431 498.196078c-37.647059 0-72.784314-15.058824-99.137255-41.411764L143.058824 166.901961c-7.529412-7.529412-7.529412-18.823529 0-26.352941 7.529412-7.529412 18.823529-7.529412 26.352941 0l289.882353 289.882353c18.823529 18.823529 45.176471 30.117647 72.784313 30.117647 27.607843 0 53.960784-10.039216 72.784314-30.117647l287.372549-287.372549c7.529412-7.529412 18.823529-7.529412 26.352941 0 7.529412 7.529412 7.529412 18.823529 0 26.352941L631.215686 456.784314c-26.352941 26.352941-61.490196 41.411765-99.137255 41.411764z" fill="#0B3155" p-id="12500"></path><path d="M927.372549 692.705882c-5.019608 0-10.039216-1.254902-13.803922-5.019607L643.764706 417.882353c-7.529412-7.529412-7.529412-18.823529 0-26.352941 7.529412-7.529412 18.823529-7.529412 26.352941 0L941.176471 661.333333c7.529412 7.529412 7.529412 18.823529 0 26.352942-3.764706 3.764706-8.784314 5.019608-13.803922 5.019607zM134.27451 692.705882c-5.019608 0-10.039216-1.254902-13.803922-5.019607-7.529412-7.529412-7.529412-18.823529 0-26.352942l271.058824-271.058823c7.529412-7.529412 18.823529-7.529412 26.352941 0 7.529412 7.529412 7.529412 18.823529 0 26.352941L148.078431 687.686275c-3.764706 3.764706-8.784314 5.019608-13.803921 5.019607z" fill="#0B3155" p-id="12501"></path></svg>
