<svg t="1699885577620" class="icon" viewBox="0 0 1024 1024" version="1.1" xmlns="http://www.w3.org/2000/svg" p-id="10648" width="32" height="32"><path d="M874.033889 149.966111A508.620037 508.620037 0 0 0 511.999232 0.001536a511.794432 511.794432 0 0 0-402.072997 194.918108V128.001344a25.599962 25.599962 0 0 0-51.199923 0v152.166172a25.599962 25.599962 0 0 0 33.843149 24.268763l146.073381-49.766325a25.599962 25.599962 0 0 0-16.486375-48.435127l-76.287886 26.009561a460.696909 460.696909 0 0 1 366.181851-180.940529c254.105219 0 460.799309 206.69409 460.799309 460.799309s-206.69409 460.799309-460.799309 460.799309a460.543309 460.543309 0 0 1-405.912991-242.534037 25.599962 25.599962 0 1 0-45.055933 24.268764 511.845632 511.845632 0 0 0 451.020124 269.465196c136.754995 0 265.318002-53.24792 362.034657-149.964575s149.964575-225.279662 149.964575-362.034657a508.620037 508.620037 0 0 0-149.964575-362.034657z" fill="" p-id="10649"></path><path d="M511.999232 537.60073a25.599962 25.599962 0 0 1-12.441581-3.225596l-230.399655-127.999808a25.599962 25.599962 0 0 1 24.883163-44.748732l217.087674 120.575819 268.748397-171.007744a25.599962 25.599962 0 1 1 27.494359 43.161535l-281.599578 179.199732a25.599962 25.599962 0 0 1-13.721579 3.993594z" fill="" p-id="10650"></path></svg>
