<svg t="1697262110104" class="icon" viewBox="0 0 1024 1024" version="1.1" xmlns="http://www.w3.org/2000/svg" p-id="16079" width="32" height="32"><path d="M511.9250126 961.84999971l-3.5997003-1.7998497-446.40029355-222.69393897V286.49378867L511.9250126 62.03749678l3.59970029 1.79984971 446.40029356 222.65644218v450.86242237l-449.99999385 224.49378867zM116.70795283 703.57152675l367.80684434 183.50970468v-358.0951535L116.70795283 349.67602286v353.8955039z m395.21705977-580.4516206L148.61779297 304.37979805l363.30721963 177.13523672 363.30721963-177.13523672-363.30721963-181.2598919z m395.21705977 226.5561167l-367.80684435 179.31005508v358.09515352l367.80684435-183.5097047V349.67602286z m-270.87742354 219.58169853l184.82209629-90.14248651a27.74768731 27.74768731 0 0 1 36.67194316 12.56145292 27.37271865 27.37271865 0 0 1-12.56145292 36.55945283l-184.85959307 90.14248652a27.56020254 27.56020254 0 0 1-36.63444639-12.52395615 27.37271865 27.37271865 0 0 1 12.56145293-36.59694961zM375.5488792 621.11589893a27.37271865 27.37271865 0 0 1-11.96150274-2.73727178l-184.93458663-90.1799833a27.33522187 27.33522187 0 0 1-12.56145292-36.55945283 27.89767442 27.89767442 0 0 1 36.63444639-12.56145293l184.89708985 90.14248652a27.37271865 27.37271865 0 0 1-12.07399395 51.89567432z" p-id="16080"></path></svg>
