<svg t="1697262513509" class="icon" viewBox="0 0 1057 1024" version="1.1" xmlns="http://www.w3.org/2000/svg" p-id="28019" width="32" height="32"><path d="M885.438 557.919c25.695-51.52 40.545-109.247 40.545-170.527C925.983 173.44 749.918 0 532.769 0 315.614 0 139.552 173.44 139.552 387.424c0 61.28 14.847 119.007 40.542 170.525L20.48 830.303c0 0 101.215 20.285 203.904 41.44 68.48 76.19 136.64 152.255 136.64 152.255l146.75-250.429c8.32 0.51 16.545 1.245 24.995 1.245 8.445 0 16.7-0.735 24.99-1.245l146.75 250.429c0 0 68.16-76.03 136.61-152.255 102.69-21.155 203.935-41.44 203.935-41.44L885.438 557.919zM353.407 907.838c0 0-49.152-46.59-95.36-91.52-65.535-18.625-131.68-37.63-131.68-37.63l92.8-158.275c53.505 69.795 130.272 121.025 219.104 142.655L353.407 907.838zM532.769 704.253c-176.577 0-319.682-143.425-319.682-320.349 0-176.897 143.137-320.319 319.682-320.319 176.54 0 319.679 143.422 319.679 320.319C852.448 560.829 709.308 704.253 532.769 704.253zM807.488 816.318c-46.21 44.93-95.36 91.52-95.36 91.52l-84.835-144.77c88.835-21.63 165.6-72.86 219.104-142.655l92.77 158.305C939.133 778.688 873.023 797.663 807.488 816.318zM532.769 160c-123.715 0-224.002 100.287-224.002 223.999s100.287 223.999 224.002 223.999c123.71 0 223.999-100.287 223.999-223.999S656.478 160 532.769 160zM532.769 543.999c-88.355 0-160.002-71.647-160.002-160s71.647-160 160.002-160c88.35 0 160 71.647 160 160S621.118 543.999 532.769 543.999z" fill="#272636" p-id="28020"></path></svg>
