<svg t="1697262636695" class="icon" viewBox="0 0 1260 1024" version="1.1" xmlns="http://www.w3.org/2000/svg" p-id="30875" width="32" height="32"><path d="M481.163636 467.781818h-163.781818c-58.181818 0-105.6-47.127273-105.6-105.6V198.690909c0-58.181818 47.127273-105.6 105.6-105.6h163.781818c58.181818 0 105.6 47.127273 105.6 105.6v163.781818c0 58.181818-47.127273 105.309091-105.6 105.309091zM317.381818 148.654545c-27.636364 0-50.036364 22.109091-50.036363 50.036364v163.781818c0 27.636364 22.109091 50.036364 50.036363 50.036364h163.781818c27.636364 0 50.036364-22.109091 50.036364-50.036364V198.690909c0-27.636364-22.109091-50.036364-50.036364-50.036364h-163.781818zM939.345455 467.781818h-163.781819c-58.181818 0-105.6-47.127273-105.6-105.6V198.690909c0-58.181818 47.127273-105.6 105.6-105.6h163.781819c58.181818 0 105.6 47.127273 105.6 105.6v163.781818c-0.290909 58.181818-47.418182 105.309091-105.6 105.309091zM775.563636 148.654545c-27.636364 0-50.036364 22.109091-50.036363 50.036364v163.781818c0 27.636364 22.109091 50.036364 50.036363 50.036364h163.781819c27.636364 0 50.036364-22.109091 50.036363-50.036364V198.690909c0-27.636364-22.109091-50.036364-50.036363-50.036364h-163.781819zM939.345455 939.636364h-163.781819c-58.181818 0-105.6-47.127273-105.6-105.6v-163.781819c0-58.181818 47.127273-105.6 105.6-105.6h163.781819c58.181818 0 105.6 47.127273 105.6 105.6v163.781819c-0.290909 58.472727-47.418182 105.6-105.6 105.6z m-163.781819-319.127273c-27.636364 0-50.036364 22.109091-50.036363 50.036364v163.781818c0 27.636364 22.109091 50.036364 50.036363 50.036363h163.781819c27.636364 0 50.036364-22.109091 50.036363-50.036363v-163.781818c0-27.636364-22.109091-50.036364-50.036363-50.036364h-163.781819zM481.163636 939.636364h-163.781818c-58.181818 0-105.6-47.127273-105.6-105.6v-163.781819c0-58.181818 47.127273-105.6 105.6-105.6h163.781818c58.181818 0 105.6 47.127273 105.6 105.6v163.781819c0 58.472727-47.127273 105.6-105.6 105.6z m-163.781818-319.127273c-27.636364 0-50.036364 22.109091-50.036363 50.036364v163.781818c0 27.636364 22.109091 50.036364 50.036363 50.036363h163.781818c27.636364 0 50.036364-22.109091 50.036364-50.036363v-163.781818c0-27.636364-22.109091-50.036364-50.036364-50.036364h-163.781818z" p-id="30876"></path></svg>
