<svg t="1697264496222" class="icon" viewBox="0 0 1024 1024" version="1.1" xmlns="http://www.w3.org/2000/svg" p-id="99600" width="32" height="32"><path d="M485.4784 624.2304v-209.92c0-14.4384 11.6736-26.112 26.112-26.112h0.2048c14.4384 0 26.112 11.6736 26.112 26.112v209.92c0 14.4384-11.6736 26.112-26.112 26.112h-0.2048c-14.336 0-26.112-11.776-26.112-26.112z m26.5216 78.1312h0.2048c14.4384 0 26.112 11.6736 26.112 26.112v0.2048c0 14.4384-11.6736 26.112-26.112 26.112h-0.2048c-14.4384 0-26.112-11.6736-26.112-26.112v-0.2048c-0.1024-14.4384 11.6736-26.112 26.112-26.112z m0 0" p-id="99601"></path><path d="M511.6928 259.8912l296.5504 533.2992H215.1424l296.5504-533.2992m0-80.0768c-9.0112 0-17.92 4.5056-22.9376 13.5168l-340.992 613.376c-9.728 17.5104 2.9696 39.1168 22.9376 39.1168h681.984c20.0704 0 32.6656-21.504 22.9376-39.1168l-340.992-613.376c-5.0176-9.0112-13.9264-13.5168-22.9376-13.5168z m0 0" p-id="99602"></path></svg>
