<svg t="1698085018400" class="icon" viewBox="0 0 1024 1024" version="1.1" xmlns="http://www.w3.org/2000/svg" p-id="5408" width="32" height="32"><path d="M542.208 765.5424h99.4816a9.9328 9.9328 0 0 0 10.0864-9.728v-0.3584l-3.072-86.2208a28.9792 28.9792 0 0 1 13.5168-25.344c75.6736-48.5376 122.0608-130.2528 122.0608-219.648 0-145.408-121.856-263.3216-272.2816-263.3216-150.3744 0-272.2816 117.8624-272.2816 263.3216 0 89.3952 46.3872 171.1616 122.112 219.648 8.1408 5.2224 13.1584 13.9264 13.5168 23.3984l3.1744 88.832c0.1536 5.2736 4.608 9.4208 10.0352 9.4208h93.184v-198.0416L409.2928 493.056a28.5696 28.5696 0 0 1-6.9632-28.5184 29.8496 29.8496 0 0 1 22.016-20.0192 30.9248 30.9248 0 0 1 29.0304 8.3968l59.904 61.5936 68.7104-62.7712a30.976 30.976 0 0 1 42.752 1.1776 28.5696 28.5696 0 0 1-1.2288 41.3696l-81.2544 74.24v197.0176z m302.592-341.2992c0.1024 102.144-50.0224 198.2464-135.0144 258.8672l2.4576 70.3488a67.072 67.072 0 0 1-19.7632 49.7664c-13.312 13.312-31.6416 20.8384-50.7904 20.8384H388.5568c-38.0416 0-69.2224-29.184-70.5536-65.8944l-2.6112-74.24C229.7344 623.36 179.0976 526.848 179.2 424.2432 179.2 246.4768 328.192 102.4 512 102.4s332.8 144.0768 332.8 321.8432zM421.2224 921.6a29.7472 29.7472 0 0 1-30.208-29.2352c0-16.1792 13.5168-29.2864 30.208-29.2864h181.5552c16.6912 0 30.208 13.1072 30.208 29.2864a29.7472 29.7472 0 0 1-30.208 29.2352H421.2224z" fill="#475569" p-id="5409"></path></svg>
