<svg t="1697262371702" class="icon" viewBox="0 0 1024 1024" version="1.1" xmlns="http://www.w3.org/2000/svg" p-id="24650" width="32" height="32"><path d="M798.239721 592.527035 798.239721 177.35943c0-35.273365-28.599362-63.871703-63.87068-63.871703L127.584282 113.487727c-35.273365 0-63.871703 28.598338-63.871703 63.871703l0 415.167604c0 35.273365 28.598338 63.871703 63.871703 63.871703l63.871703 0 0 159.678746 159.679769-159.678746 383.232265 0C769.639337 656.398738 798.238698 627.800399 798.239721 592.527035L798.239721 592.527035zM324.689429 592.527035l-69.362764 69.361741 0-69.361741L127.584282 592.527035 127.584282 177.35943 734.369042 177.35943l0 415.167604L324.689429 592.527035 324.689429 592.527035zM894.047788 209.295793l-63.871703 0 0 63.871703 63.871703 0 0 415.168628L766.304382 688.336124l0 69.360717-69.362764-69.360717L383.072117 688.336124l0 63.87068 287.423175 0 159.679769 159.679769L830.175061 752.20578l63.872726 0c35.272341 0 63.87068-28.598338 63.87068-63.87068L957.918467 273.167496C957.918467 237.894132 929.319106 209.295793 894.047788 209.295793L894.047788 209.295793z" p-id="24651"></path></svg>
