<svg t="1697263219637" class="icon" viewBox="0 0 1024 1024" version="1.1" xmlns="http://www.w3.org/2000/svg" p-id="48698" width="32" height="32"><path d="M902.981818 318.836364L395.636364 614.4l-2.327273 2.327273c-4.654545 2.327273-9.309091 2.327273-13.963636 2.327272-11.636364 0-20.945455-6.981818-25.6-13.963636l-2.327273-4.654545-81.454546-176.872728c0-2.327273-2.327273-4.654545-2.327272-6.981818 0-6.981818 6.981818-13.963636 13.963636-13.963636 2.327273 0 6.981818 0 9.309091 2.327273l95.418182 67.490909c6.981818 4.654545 16.290909 6.981818 23.272727 6.981818 4.654545 0 9.309091 0 13.963636-2.327273L870.4 279.272727c-76.8-95.418182-209.454545-158.254545-358.4-158.254545C267.636364 121.018182 69.818182 286.254545 69.818182 488.727273c0 111.709091 60.509091 211.781818 153.6 279.272727 6.981818 4.654545 11.636364 13.963636 11.636363 23.272727 0 2.327273 0 6.981818-2.327272 9.309091-6.981818 27.927273-18.618182 72.145455-20.945455 74.472727 0 2.327273-2.327273 6.981818-2.327273 11.636364 0 6.981818 6.981818 13.963636 13.963637 13.963636 2.327273 0 4.654545-2.327273 9.309091-2.327272l97.745454-55.854546c6.981818-4.654545 13.963636-6.981818 23.272728-6.981818 4.654545 0 9.309091 0 13.963636 2.327273 44.218182 13.963636 93.090909 20.945455 144.290909 20.945454 244.363636 0 442.181818-165.236364 442.181818-367.709091 0-62.836364-18.618182-121.018182-51.2-172.218181z" fill="#A8ABB0" p-id="48699"></path></svg>
