<svg t="1697264523945" class="icon" viewBox="0 0 1024 1024" version="1.1" xmlns="http://www.w3.org/2000/svg" p-id="101623" width="32" height="32"><path d="M512 998.44096c-262.3488 0-475.77088-213.44256-475.77088-475.77088C36.22912 260.3008 249.6512 46.85824 512 46.85824S987.7504 260.3008 987.7504 522.67008C987.7504 784.9984 774.3488 998.44096 512 998.44096zM512 102.76864c-231.5264 0-419.92192 188.35456-419.92192 419.90144 0 231.5264 188.39552 419.90144 419.92192 419.90144 231.56736 0 419.92192-188.37504 419.92192-419.90144C931.92192 291.1232 743.56736 102.76864 512 102.76864zM689.5616 807.85408c-23.22432 0-49.37728-4.95616-77.7216-14.76608l0.06144-0.18432c-16.60928-5.14048-29.06112-10.79296-37.0688-16.83456-7.65952-5.8368-11.53024-11.91936-11.53024-18.04288 0-4.21888 0.63488-7.96672 1.92512-11.3664 1.29024-3.23584 3.39968-5.67296 6.43072-7.43424 2.29376-1.39264 5.2224-2.08896 8.68352-2.08896 1.06496 0 2.19136 0.06144 3.3792 0.2048 5.16096 0.55296 11.9808 2.84672 20.13184 6.7584 28.9792 14.47936 55.1936 21.83168 77.88544 21.83168 13.06624 0 25.23136-2.27328 36.2496-6.73792 8.47872-3.13344 12.63616-13.59872 12.63616-31.90784l0-385.8432c0-10.69056-5.44768-16.36352-15.79008-16.36352L440.36096 325.07904c-14.52032 0-21.54496-6.26688-21.54496-19.16928 0-14.49984 7.02464-21.52448 21.54496-21.52448l271.4624 0c23.47008 0 39.26016 3.2768 46.8992 9.76896 9.1136 7.9872 13.78304 23.90016 13.78304 47.28832l0 397.27104c0 8.97024-1.78176 17.57184-5.26336 25.72288-3.50208 8.11008-8.72448 15.50336-15.52384 21.93408-6.77888 6.41024-15.48288 11.63264-25.82528 15.54432C715.53024 805.888 703.2832 807.85408 689.5616 807.85408zM341.03296 803.67616c-7.72096 0-14.06976-4.8128-19.39456-14.66368-5.4272-10.09664-8.192-21.93408-8.192-35.18464 2.00704-45.6704 4.32128-92.34432 6.90176-139.8784 2.62144-47.55456 4.9152-94.208 6.94272-139.96032 0-3.54304-1.39264-9.37984-10.67008-9.37984-0.90112 0-1.86368 0.06144-2.90816 0.16384l-65.55648 5.4272c-1.86368 0.14336-3.62496 0.24576-5.2224 0.24576-5.55008 0-9.46176-1.024-11.28448-2.9696-1.67936-1.80224-3.70688-6.20544-3.70688-17.05984 0-10.42432 1.76128-14.92992 3.25632-16.91648 1.39264-1.88416 5.30432-4.3008 16.0768-5.24288 12.3904-0.79872 24.86272-1.80224 37.31456-3.01056 12.43136-1.20832 24.84224-2.19136 37.2736-3.01056 1.88416-0.12288 3.72736-0.2048 5.50912-0.2048 13.02528 0 23.10144 3.80928 29.98272 11.32544 7.84384 8.62208 12.02176 20.86912 12.43136 36.37248l-14.09024 280.576c0 0 7.2704-7.41376 9.89184-10.24 2.58048-2.82624 6.08256-6.41024 10.48576-10.79296 5.69344-5.69344 11.20256-11.93984 16.384-18.51392 5.26336-6.63552 10.28096-13.37344 15.13472-20.25472 5.28384-7.5776 10.6496-11.9808 15.95392-13.06624 1.45408-0.3072 2.88768-0.45056 4.21888-0.45056 3.584 0 6.71744 1.024 9.64608 3.13344l2.82624-2.41664c-3.85024-7.72096-5.79584-18.96448-5.79584-33.46432l0-119.15264c0-19.02592 3.42016-32.03072 10.24-38.66624 6.81984-6.61504 19.12832-9.99424 36.57728-9.99424l146.26816 0c17.85856 0 30.59712 3.56352 37.80608 10.58816 7.18848 7.02464 10.83392 19.82464 10.83392 38.05184l0 119.15264c0 18.67776-3.66592 31.88736-10.8544 39.3216-7.20896 7.3728-19.92704 11.14112-37.7856 11.14112L481.28 694.6816c-14.39744 0-25.21088-2.12992-32.09216-6.32832l-2.6624 2.58048c1.4336 2.49856 2.12992 5.0176 2.12992 7.4752 0 10.24-14.97088 30.4128-44.56448 60.02688C374.8864 788.45952 353.6896 803.67616 341.03296 803.67616zM485.49888 515.31776c-3.62496 0-9.728 1.51552-9.728 11.53024l0 114.97472c0 11.0592 5.28384 13.37344 9.728 13.37344l140.26752 0c4.44416 0 9.76896-2.31424 9.76896-13.37344l0-114.97472c0-10.0352-6.12352-11.53024-9.76896-11.53024L485.49888 515.31776zM425.30816 421.41696c-14.09024 0-20.95104-6.656-20.95104-20.35712 0-13.68064 6.84032-20.33664 20.95104-20.33664l258.82624 0c13.70112 0 20.33664 6.656 20.33664 20.33664 0 13.70112-6.63552 20.35712-20.33664 20.35712L425.30816 421.41696zM384.53248 389.69344c-1.47456 0-3.01056-0.14336-4.64896-0.43008-5.2224-0.94208-11.14112-4.73088-17.63328-11.24352-9.25696-9.216-21.52448-20.6848-36.49536-34.07872-14.82752-13.23008-32.89088-28.73344-54.14912-46.44864l0.512-0.45056c-6.69696-3.70688-10.6496-7.72096-11.71456-12.00128-1.10592-4.42368-0.86016-8.45824 0.79872-12.32896 1.65888-3.8912 4.3008-7.168 7.80288-9.74848 3.584-2.64192 6.90176-4.34176 9.85088-5.07904 4.79232 0.02048 9.40032 1.31072 13.53728 3.93216l0.38912-0.43008c1.45408 0.8192 3.85024 2.39616 7.5776 5.4272 4.1984 3.42016 9.07264 7.70048 14.66368 12.86144l65.6384 58.40896c5.95968 5.59104 10.56768 9.99424 13.74208 13.18912 3.11296 3.11296 5.34528 5.632 6.71744 7.5776 1.26976 1.82272 2.10944 3.33824 2.43712 4.54656 0.34816 1.24928 0.53248 3.01056 0.53248 5.18144 0 3.25632-1.06496 6.79936-3.072 10.50624-2.02752 3.6864-4.85376 6.57408-8.2944 8.6016C390.41024 389.0176 387.64544 389.69344 384.53248 389.69344z" fill="#272636" p-id="101624"></path></svg>
