<svg t="1697263612743" class="icon" viewBox="0 0 1024 1024" version="1.1" xmlns="http://www.w3.org/2000/svg" p-id="62282" width="32" height="32"><path d="M846 835q-43-37-94-61l2-6q16-53 26-113l2-16q3-22 5-46l2-18q1-19 1-40h186q-4 85-37.5 162T846 835zM650 957q15-16 29-35l2-4q28-39 50-89l5-12q43 22 77 50-72 61-163 90z m-115 18V769q82 3 160 31-29 73-70 119t-90 56z m0-440h209q-2 113-34 221-85-31-175-33V535z m0-234q90-2 175-33 30 98 34 221H535V301z m0-252q49 10 90 56t70 119q-78 28-160 31V49z m278 108q-34 28-77 50l-5-12q-20-47-49-89l-3-4q-13-18-29-35 91 29 163 90z m163 332H790q0-20-1-40l-2-18q-2-23-5-46l-2-16q-9-57-26-113l-2-6q53-26 94-61 59 61 92.5 138T976 489zM489 255q-82-3-160-31 29-73 70-119t90-56v206z m0 234H280q4-123 34-221 80 30 175 33v188z m0 234q-90 2-175 33-32-108-34-221h209v188z m0 252q-49-10-90-56t-70-119q78-28 160-31v206zM211 867q34-28 77-50l5 12q22 50 49 89l3 4q14 19 29 35-90-29-163-90zM48 535h186q0 20 1 40l2 18q2 24 5 46l2 16q10 60 26 113l2 6q-51 24-94 61-59-61-92.5-138T48 535z m130-346q41 35 94 61l-2 6q-17 56-26 113l-2 16q-3 23-5 46l-2 18q-1 20-1 40H48q4-85 37.5-162T178 189zM374 67q-15 16-29 35l-3 4q-29 42-49 89l-5 12q-41-20-77-50 72-61 163-90zM512 0Q294 5 149.5 149.5T0 512q5 218 149.5 362.5T512 1024q218-5 362.5-149.5T1024 512q-5-218-149.5-362.5T512 0z" fill="#666666" p-id="62283"></path></svg>
