<svg t="1697264315194" class="icon" viewBox="0 0 1024 1024" version="1.1" xmlns="http://www.w3.org/2000/svg" p-id="97649" width="32" height="32"><path d="M921.6 97.28l-212.48 0L709.12 25.6l-71.68 0 0 71.68-248.32 0L389.12 25.6l-71.68 0 0 71.68L102.4 97.28C64 97.28 30.72 128 30.72 168.96l0 747.52c0 38.4 30.72 71.68 71.68 71.68L921.6 988.16c38.4 0 71.68-30.72 71.68-71.68L993.28 168.96C993.28 128 960 97.28 921.6 97.28zM921.6 842.24c0 38.4-30.72 71.68-71.68 71.68L174.08 913.92c-38.4 0-71.68-30.72-71.68-71.68L102.4 238.08c0-38.4 30.72-71.68 71.68-71.68l143.36 0 0 107.52 71.68 0L389.12 168.96l248.32 0 0 107.52 71.68 0L709.12 168.96l143.36 0c38.4 0 71.68 30.72 71.68 71.68L924.16 842.24zM138.24 417.28l747.52 0 0-71.68L138.24 345.6 138.24 417.28zM432.64 798.72 353.28 665.6 281.6 665.6l107.52 176.64L460.8 842.24l343.04-355.84-71.68 0L432.64 798.72z" p-id="97650"></path></svg>
