<svg t="1697261264965" class="icon" viewBox="0 0 1024 1024" version="1.1" xmlns="http://www.w3.org/2000/svg" p-id="7437" width="32" height="32"><path d="M661.333333 640h-53.333333a10.666667 10.666667 0 1 0 0 21.333333H661.333333v53.333334a10.666667 10.666667 0 1 0 21.333334 0V661.333333h53.333333a10.666667 10.666667 0 1 0 0-21.333333H682.666667v-53.333333a10.666667 10.666667 0 1 0-21.333334 0V640z m-149.333333 384C229.226667 1024 0 794.773333 0 512S229.226667 0 512 0s512 229.226667 512 512-229.226667 512-512 512z m0-512a106.666667 106.666667 0 1 0 0-213.333333 106.666667 106.666667 0 0 0 0 213.333333z m0-21.333333a85.333333 85.333333 0 1 1 0-170.666667 85.333333 85.333333 0 0 1 0 170.666667z m125.269333 89.173333A192 192 0 0 0 320 725.333333h21.333333a170.666667 170.666667 0 0 1 283.477334-128.064l12.458666-17.450666z" fill="#FFB91E" p-id="7438"></path></svg>
