<svg t="1682349965298" class="icon" viewBox="0 0 1024 1024" version="1.1" xmlns="http://www.w3.org/2000/svg" p-id="110993" width="200" height="200"><path d="M170.666667 136.533333m136.533333 0l512 0q136.533333 0 136.533333 136.533334l0 307.2q0 136.533333-136.533333 136.533333l-512 0q-136.533333 0-136.533333-136.533333l0-307.2q0-136.533333 136.533333-136.533334Z" fill="#FC7300" p-id="110994"></path><path d="M170.666667 170.666667m136.533333 0l512 0q136.533333 0 136.533333 136.533333l0 307.2q0 136.533333-136.533333 136.533333l-512 0q-136.533333 0-136.533333-136.533333l0-307.2q0-136.533333 136.533333-136.533333Z" fill="#FA8511" p-id="110995"></path><path d="M170.666667 273.066667h512a136.533333 136.533333 0 0 1 136.533333 136.533333v307.2a136.533333 136.533333 0 0 1-136.533333 136.533333h-188.757334l-67.242666 67.4816L359.1168 853.333333H170.666667a136.533333 136.533333 0 0 1-136.533334-136.533333v-307.2a136.533333 136.533333 0 0 1 136.533334-136.533333z" fill="#FBC476" p-id="110996"></path><path d="M170.666667 307.2h512a136.533333 136.533333 0 0 1 136.533333 136.533333v307.2a136.533333 136.533333 0 0 1-136.533333 136.533334h-188.757334l-67.242666 67.4816L359.1168 887.466667H170.666667a136.533333 136.533333 0 0 1-136.533334-136.533334v-307.2a136.533333 136.533333 0 0 1 136.533334-136.533333z" fill="#FAB85F" p-id="110997"></path><path d="M204.8 477.866667m34.133333 0l375.466667 0q34.133333 0 34.133333 34.133333l0 0q0 34.133333-34.133333 34.133333l-375.466667 0q-34.133333 0-34.133333-34.133333l0 0q0-34.133333 34.133333-34.133333Z" fill="#FFFFFF" p-id="110998"></path><path d="M204.8 648.533333m34.133333 0l273.066667 0q34.133333 0 34.133333 34.133334l0 0q0 34.133333-34.133333 34.133333l-273.066667 0q-34.133333 0-34.133333-34.133333l0 0q0-34.133333 34.133333-34.133334Z" fill="#FFFFFF" p-id="110999"></path></svg>
