<svg t="1682349353098" class="icon" viewBox="0 0 1024 1024" version="1.1" xmlns="http://www.w3.org/2000/svg" p-id="102778" width="200" height="200"><path d="M170.666667 85.333333h213.333333a85.333333 85.333333 0 0 1 85.333333 85.333334v213.333333a85.333333 85.333333 0 0 1-85.333333 85.333333H170.666667a85.333333 85.333333 0 0 1-85.333334-85.333333V170.666667a85.333333 85.333333 0 0 1 85.333334-85.333334z m0 469.333334h213.333333a85.333333 85.333333 0 0 1 85.333333 85.333333v213.333333a85.333333 85.333333 0 0 1-85.333333 85.333334H170.666667a85.333333 85.333333 0 0 1-85.333334-85.333334v-213.333333a85.333333 85.333333 0 0 1 85.333334-85.333333z m469.333333 0h213.333333a85.333333 85.333333 0 0 1 85.333334 85.333333v213.333333a85.333333 85.333333 0 0 1-85.333334 85.333334h-213.333333a85.333333 85.333333 0 0 1-85.333333-85.333334v-213.333333a85.333333 85.333333 0 0 1 85.333333-85.333333z" fill="#FFB319" p-id="102779"></path><path d="M746.666667 5.804329m60.339778 60.339779l150.849447 150.849447q60.339779 60.339779 0 120.679557l-150.849447 150.849447q-60.339779 60.339779-120.679557 0l-150.849447-150.849447q-60.339779-60.339779 0-120.679557l150.849447-150.849447q60.339779-60.339779 120.679557 0Z" fill="#FF6E26" p-id="102780"></path></svg>
