<svg t="1682346903227" class="icon" viewBox="0 0 1024 1024" version="1.1" xmlns="http://www.w3.org/2000/svg" p-id="2449" width="200" height="200"><path d="M195.30666667 869.76L39.04 171.30666667l301.65333333-54.08-18.13333333 79.14666666-194.56 33.06666667 100.37333333 485.33333333zM828.16 989.33333333L232.21333333 876.48 391.57333333 34.66666667l595.94666667 112.74666666-159.36 841.92zM319.46666667 817.06666667l449.17333333 85.01333333L900.26666667 206.82666667l-449.17333334-85.01333334L319.46666667 817.06666667z" fill="#FF9F06" p-id="2450"></path><path d="M478.62933333 457.42613333L517.312 252.39466667l73.37493333 13.8432-38.68266666 205.0304z" fill="#FF9F06" p-id="2451"></path><path d="M695.86346667 316.81813333l6.4704-28.8288 104.07466666 23.36-6.4704 28.8288zM685.09866667 365.24586667l6.4704-28.8288 104.07466666 23.36-6.4704 28.8288zM673.70026667 412.86186667l6.47146666-28.8288 104.07466667 23.36-6.47146667 28.8288zM663.77706667 460.69866667l6.4704-28.8288 104.07466666 23.36-6.4704 28.8288zM651.7728 510.14506667l6.4704-28.82773334 104.07466667 23.36-6.4704 28.8288zM640.58026667 560.04373333l6.47146666-28.8288 104.07466667 23.36-6.47146667 28.8288zM630.8832 608.47146667l6.4704-28.8288 104.07466667 23.36-6.4704 28.8288zM619.50826667 655.984l6.4704-28.8288 104.07466666 23.36-6.4704 28.8288zM609.45706667 703.9008l6.4704-28.8288 104.07466666 23.36-6.4704 28.8288zM598.54293333 753.24373333l6.47146667-28.8288 104.07466667 23.36-6.47146667 28.8288z" fill="#F7931E" p-id="2452"></path></svg>
