<svg t="1684852746534" class="icon" viewBox="0 0 1024 1024" version="1.1" xmlns="http://www.w3.org/2000/svg" p-id="12785" width="200" height="200"><path d="M803.7 887.2H226.9c-47.4 0-86.2-38.8-86.2-86.2V278.2c0-47.4 38.8-86.2 86.2-86.2h576.8c47.4 0 86.2 38.8 86.2 86.2v522.9c0 47.3-38.8 86.1-86.2 86.1z" fill="#FCA235" opacity=".7" p-id="12786"></path><path d="M646.6 496.6H384c-49.5 0-90-40.5-90-90V175.8c0-25.5 20.8-46.3 46.3-46.3h349.9c25.5 0 46.3 20.8 46.3 46.3v230.7c0.1 49.6-40.4 90.1-89.9 90.1z" fill="#FCA235" opacity=".7" p-id="12787"></path><path d="M642.9 743.5H387.7c-22 0-40-18-40-40s18-40 40-40h255.2c22 0 40 18 40 40s-18 40-40 40zM616.5 416.2c-22 0-40-18-40-40V273.9c0-22 18-40 40-40s40 18 40 40v102.2c0 22.1-18 40.1-40 40.1z" fill="#FFFFFF" p-id="12788"></path></svg>
