<svg t="1682347988737" class="icon" viewBox="0 0 1024 1024" version="1.1" xmlns="http://www.w3.org/2000/svg" p-id="14488" width="200" height="200"><path d="M237.714286 603.428571c30.321371 0 54.857143-24.572343 54.857143-54.857143s-24.535771-54.857143-54.857143-54.857143-54.857143 24.572343-54.857143 54.857143S207.392914 603.428571 237.714286 603.428571z" fill="#F69661" p-id="14489"></path><path d="M420.571429 603.428571c30.321371 0 54.857143-24.572343 54.857143-54.857143s-24.535771-54.857143-54.857143-54.857143-54.857143 24.572343-54.857143 54.857143S390.250057 603.428571 420.571429 603.428571z" fill="#F69661" p-id="14490"></path><path d="M603.428571 603.428571c30.321371 0 54.857143-24.572343 54.857143-54.857143s-24.535771-54.857143-54.857143-54.857143-54.857143 24.572343-54.857143 54.857143S573.1072 603.428571 603.428571 603.428571z" fill="#F69661" p-id="14491"></path><path d="M804.571429 256 36.571429 256c0 0-36.571429 0-36.571429 36.571429l0 512c0 36.571429 36.571429 36.571429 36.571429 36.571429l109.714286 0 0 182.857143 182.857143-182.857143 475.428571 0c0 0 36.571429 0 36.571429-36.571429L841.142857 292.571429C841.142857 256 804.571429 256 804.571429 256zM768 768 298.858057 768l-21.429029 21.429029L219.428571 847.429486 219.428571 768 73.142857 768 73.142857 329.142857l694.857143 0L768 768z" fill="#F69661" p-id="14492"></path><path d="M987.428571 73.142857 219.428571 73.142857c0 0-36.571429 0-36.571429 36.571429l0 109.714286 73.142857 0L256 146.285714l694.857143 0 0 438.857143-73.142857 0 0 73.142857 109.714286 0c0 0 36.571429 0 36.571429-36.571429L1024 109.714286C1024 73.142857 987.428571 73.142857 987.428571 73.142857z" fill="#F69661" p-id="14493"></path></svg>
