<svg t="1686072154961" class="icon" viewBox="0 0 1024 1024" version="1.1" xmlns="http://www.w3.org/2000/svg" p-id="5190" width="200" height="200"><path d="M809.6 928H186.112a38.72 38.72 0 0 1 0-77.504h623.488a38.72 38.72 0 0 1 0 77.504z m-17.6-832H203.584A171.776 171.776 0 0 0 32 267.584v326.4a171.776 171.776 0 0 0 171.584 171.584h588.8a171.776 171.776 0 0 0 171.584-171.584v-326.4A171.904 171.904 0 0 0 792 96z m-114.816 467.648H318.4a38.72 38.72 0 1 1 0-77.504h358.848a38.72 38.72 0 1 1 0 77.504z m0-188.224H318.4a38.72 38.72 0 1 1 0-77.504h358.848a38.72 38.72 0 1 1 0 77.504z" fill="#EEBB7A" p-id="5191"></path></svg>
