<svg t="1683448158072" class="icon" viewBox="0 0 1024 1024" version="1.1" xmlns="http://www.w3.org/2000/svg" p-id="13946" width="200" height="200"><path d="M367.36 499.2l-296.0384 296.0896a55.6032 55.6032 0 0 0-15.9744 33.3824L42.752 945.664a35.84 35.84 0 0 0 39.424 39.424l117.0944-12.5952c12.5952-1.3312 24.3712-6.9632 33.3824-15.9232l41.4208-41.472a5.632 5.632 0 0 0 1.6384-3.9424v-35.1744c0-3.072 2.5088-5.632 5.632-5.632h35.1232a5.632 5.632 0 0 0 5.632-5.5808v-40.6528a5.632 5.632 0 0 1 1.6384-3.9424l18.7904-18.8416a5.632 5.632 0 0 1 3.9936-1.5872h40.6016a5.632 5.632 0 0 0 2.816-0.768l1.536-1.2288a5.632 5.632 0 0 0 1.6384-3.9936v-40.96a5.632 5.632 0 0 1 1.6384-3.9936l28.0576-28.0576a5.632 5.632 0 0 1 3.9936-1.6896h40.96a5.632 5.632 0 0 0 3.9936-1.5872l56.9344-56.9856 3.4304 3.4304a40.7552 40.7552 0 0 0 63.744-7.8336l58.9312-98.304a42.7008 42.7008 0 0 0-6.4-52.1216L522.24 379.5456a42.7008 42.7008 0 0 0-52.1728-6.4512L371.7632 432.128a40.704 40.704 0 0 0-7.8336 63.744l3.4304 3.4304z" fill="#F9BE29" p-id="13947"></path><path d="M199.2704 972.544c12.5952-1.3312 24.3712-6.9632 33.3824-15.9232l41.4208-41.472a5.632 5.632 0 0 0 1.6384-3.9424v-35.1744c0-3.072 2.5088-5.632 5.5808-5.632h35.1744a5.632 5.632 0 0 0 5.632-5.5808v-40.6528a5.632 5.632 0 0 1 1.6384-3.9424l18.7904-18.7904a5.632 5.632 0 0 1 3.9936-1.6384h40.6016a5.632 5.632 0 0 0 2.816-0.768l1.536-1.2288a5.632 5.632 0 0 0 1.6384-3.9936v-40.96a5.632 5.632 0 0 1 1.6384-3.9936l28.0576-28.0576a5.632 5.632 0 0 1 3.9424-1.6896h41.0112a5.632 5.632 0 0 0 3.9936-1.5872l56.9344-56.9856 3.4304 3.4304a40.7552 40.7552 0 0 0 63.744-7.8336l32.256-53.76-56.4224-56.4224a42.2912 42.2912 0 0 0-59.7504 0l-438.9888 438.9888a36.0448 36.0448 0 0 0 9.216 0.256l117.0944-12.6464z" fill="#F8AC2B" p-id="13948"></path><path d="M925.5936 102.4a292.0448 292.0448 0 0 1-289.4336 486.5536l-40.2944 67.1744a40.7552 40.7552 0 0 1-59.5456 11.52l-4.1984-3.6864-3.4304-3.4304-56.9344 56.9856a5.632 5.632 0 0 1-2.56 1.4336l-1.4336 0.1536h-40.96a5.632 5.632 0 0 0-2.816 0.768l-1.1776 0.9216-28.0576 28.0576a5.632 5.632 0 0 0-1.4848 2.5088l-0.1536 1.4336v41.0112a5.632 5.632 0 0 1-0.768 2.816l-0.8704 1.1776-1.536 1.2288-1.3312 0.512-1.4848 0.256h-40.6016a5.632 5.632 0 0 0-2.816 0.7168l-1.1776 0.8704-18.7904 18.8416a5.5808 5.5808 0 0 0-1.4848 2.56l-0.1536 1.3824v40.6528a5.632 5.632 0 0 1-4.1472 5.4272L316.416 870.4h-35.1744a5.632 5.632 0 0 0-5.12 3.4304l-0.512 2.2016v35.1744a5.632 5.632 0 0 1-0.7168 2.816l-0.8704 1.1264-41.472 41.472c-7.168 7.168-16.128 12.1856-25.856 14.592l-7.4752 1.3312-117.0432 12.6464a35.84 35.84 0 0 1-39.68-34.6624l0.2048-4.8128 12.5952-117.0432c1.1264-10.0864 4.9152-19.6608 11.008-27.648l4.9664-5.7344 296.0384-296.0384-3.4304-3.4304A40.7552 40.7552 0 0 1 367.2064 435.2l4.608-3.1744 67.1744-40.3456A292.0448 292.0448 0 0 1 925.5936 102.4z m-234.752 94.8224a93.7984 93.7984 0 0 0 0 132.5056 93.7984 93.7984 0 0 0 132.5056 0 93.7984 93.7984 0 0 0 0-132.5056 93.7984 93.7984 0 0 0-132.5056 0z" fill="#F9BE29" p-id="13949"></path><path d="M511.9488 545.9456a42.2912 42.2912 0 0 1 55.4496-3.7888l4.3008 3.7888 56.4224 56.4224-32.256 53.76a40.7552 40.7552 0 0 1-59.5456 11.52l-4.1984-3.6864-3.4304-3.4304-56.9344 56.9856a5.632 5.632 0 0 1-2.56 1.4336l-1.4336 0.2048h-40.96a5.632 5.632 0 0 0-2.816 0.7168l-1.1776 0.9216-28.0576 28.0576a5.632 5.632 0 0 0-1.4848 2.5088l-0.1536 1.4336v41.0112a5.632 5.632 0 0 1-0.768 2.816l-0.8704 1.1776-1.536 1.2288-1.3312 0.512-1.4848 0.256h-40.6016a5.632 5.632 0 0 0-2.816 0.7168l-1.1776 0.9216-18.7904 18.7904a5.5808 5.5808 0 0 0-1.4848 2.56l-0.1536 1.3824v40.6528a5.632 5.632 0 0 1-4.1472 5.4272L316.416 870.4h-35.1744a5.632 5.632 0 0 0-5.12 3.3792l-0.512 2.2016v35.1744a5.632 5.632 0 0 1-0.7168 2.816l-0.8704 1.1264-41.472 41.472c-7.168 7.168-16.128 12.1856-25.856 14.6432l-7.4752 1.28-117.0432 12.6464-4.7104 0.1536-4.608-0.4096L512 545.9456z m380.928-410.9312a246.1184 246.1184 0 0 1 0 347.648 246.1184 246.1184 0 0 1-347.648 0 246.1184 246.1184 0 0 1 0-347.648 246.1184 246.1184 0 0 1 347.648 0z m-202.0352 62.208a93.7984 93.7984 0 0 0 0 132.5056 93.7984 93.7984 0 0 0 132.5056 0 93.7984 93.7984 0 0 0 0-132.5056 93.7984 93.7984 0 0 0-132.5056 0z" fill="#F8AC2B" p-id="13950"></path><path d="M567.3984 542.208l4.3008 3.7376 56.4224 56.4224-10.496 17.4592-45.9264-45.8752a42.2912 42.2912 0 0 0-55.4496-3.7888L512 573.952 102.912 982.9376l-20.736 2.2528-4.7104 0.1536-4.608-0.4096L512 545.9456a42.2912 42.2912 0 0 1 55.4496-3.7888z m-134.656 6.5536l-1.024 3.0208-9.5744 21.1456a95.232 95.232 0 0 1-18.5856 27.7504l-5.3248 5.4784-354.048 354.048a36.096 36.096 0 0 1-1.5872-9.472l0.1536-5.0176 7.2704-67.4816 310.1696-310.1696c11.5712-11.6224 19.2-16.896 28.416-21.5552l4.8128-2.304 21.1456-9.6256a12.9536 12.9536 0 0 1 18.176 14.1824z m112.4864-413.696a246.1184 246.1184 0 0 1 347.648 0 246.1184 246.1184 0 0 1-12.0832 358.8608 246.0672 246.0672 0 0 0-11.264-335.5648 246.0672 246.0672 0 0 0-335.5136-11.264c3.584-4.096 7.3216-8.1408 11.264-12.0832z" fill="#ED8C16" p-id="13951"></path></svg>
