<svg t="1689231562248" class="icon" viewBox="0 0 1024 1024" version="1.1" xmlns="http://www.w3.org/2000/svg" p-id="10375" width="200" height="200"><path d="M61.952 510.976c0 247.808 200.704 448.512 448.512 448.512s448.512-200.704 448.512-448.512c0-247.808-200.704-448.512-448.512-448.512-247.296 0-448.512 200.704-448.512 448.512z" fill="#FB9E02" p-id="10376"></path><path d="M290.816 379.392l210.432-119.296c5.632-3.072 13.312-3.072 18.944 0l210.432 119.296c5.632 3.072 9.728 9.728 9.728 15.872V634.88c0 6.656-3.584 12.8-9.728 15.872l-210.432 119.296c-5.632 3.072-13.312 3.072-18.944 0l-210.432-119.296c-5.632-3.072-9.728-9.728-9.728-15.872V395.776c0.512-6.656 4.096-12.8 9.728-16.384z m31.232 25.6c-1.536 1.024-2.56 2.56-2.56 4.096v211.968c0 1.536 1.024 3.072 2.56 4.096l186.368 105.984c1.536 1.024 3.072 1.024 4.608 0l186.368-105.984c1.536-1.024 2.56-2.56 2.56-4.096V409.088c0-1.536-1.024-3.072-2.56-4.096l-186.368-105.984c-1.536-1.024-3.072-1.024-4.608 0L322.048 404.992z m188.416 91.136l145.408-82.944c9.216-5.12 20.48-2.048 25.6 6.656s2.048 20.48-6.656 25.6l-145.408 82.432v163.84c0 10.24-8.704 18.432-18.944 18.432s-18.944-8.192-18.944-18.432v-163.328L346.624 445.952c-9.216-5.12-12.288-16.384-6.656-25.6 5.12-8.704 16.896-11.776 25.6-6.656l144.896 82.432z" fill="#FFFFFF" p-id="10377"></path></svg>
