<svg t="1684518001377" class="icon" viewBox="0 0 1024 1024" version="1.1" xmlns="http://www.w3.org/2000/svg" p-id="3261" width="200" height="200"><path d="M59.302884 919.928203h363.55329v14.905971H59.302884zM933.279177 282.001449l-0.038-0.759998c-3.513993-34.351933-32.227937-60.253882-66.789869-60.253883h-166.599675l-2.235996 2.797995c-11.009978 13.757973-27.473946 21.647958-45.163911 21.647958H377.934262l-48.645905 42.157917v-66.60387h-164.959678a66.849869 66.849869 0 0 0-45.101912 17.431966 66.915869 66.915869 0 0 0-21.687958 42.823917l-0.037999 0.687998a64.661874 64.661874 0 0 0-0.298 6.181988v398.139223c0 2.017996 0.042 4.425991 0.333999 6.805986 3.067994 30.51994 26.465948 54.985893 56.975889 59.503884 2.583995 0.355999 6.033988 0.767999 9.813981 0.767999h702.120629c3.721993 0 7.063986-0.385999 9.94198-0.775999 30.403941-4.515991 53.781895-28.979943 56.833889-59.341884 0.305999-2.541995 0.349999-4.94399 0.35-6.957986v-398.139223a59.439884 59.439884 0 0 0-0.294-6.113988z m-14.609971 404.251211c0 1.567997-0.028 3.407993-0.258 5.315989-2.387995 23.711954-20.56396 42.727917-44.121914 46.22791-2.285996 0.309999-5.00799 0.627999-7.839984 0.627999H164.328679c-2.269996 0-4.595991-0.186-7.703985-0.615999a52.073898 52.073898 0 0 1-44.273913-46.401909c-0.214-1.745997-0.242-3.585993-0.242-5.15199v-398.139223c0-1.683997 0.088-3.367993 0.26-5.05399l0.035999-0.649999a52.019898 52.019898 0 0 1 16.845968-32.955935 51.967899 51.967899 0 0 1 35.075931-13.559974h150.053707v84.343836l69.111865-59.897883h268.953475c21.019959 0 40.661921-8.863983 54.445893-24.445953h159.555689c26.889947 0 49.229904 20.147961 51.923898 46.40591l0.038 0.759998c0.174 1.685997 0.257999 3.369993 0.258 5.05399v398.137223z" fill="#4A555F" p-id="3262"></path><path d="M901.579239 284.735444a38.573925 38.573925 0 0 0-1.241997-6.309988c-3.429993-11.973977-12.571975-21.065959-24.147953-24.147953a32.285937 32.285937 0 0 0-6.607987-1.241997c-1.291997-0.148-2.385995-0.148-3.081994-0.148H380.714256l-58.877885 51.0279v-51.0279H164.378679c-0.745999 0-1.787997 0-3.079994 0.148-2.235996 0.198-4.421991 0.545999-6.507987 1.191997-11.825977 3.229994-20.867959 12.271976-24.197953 23.947954a35.431931 35.431931 0 0 0-1.439997 9.98798v398.087223c0 0.793998 0 1.987996 0.147999 3.377993 0.198 1.987996 0.595999 4.023992 1.191998 6.061988l0.1 0.447999c0.2 0.745999 0.447999 1.439997 0.695999 1.987996 2.235996 6.409987 6.309988 11.973977 11.825976 16.147969l0.446 0.347999c0.695999 0.447999 1.291997 0.893998 1.887996 1.241998 0.943998 0.645999 1.789997 1.091998 2.533995 1.489997a34.299933 34.299933 0 0 0 13.513974 4.023992l0.793998 0.05c0.893998 0.1 1.639997 0.1 2.085996 0.1H866.499308c0.447999 0 1.191998 0 2.085996-0.1l0.795998-0.05a34.333933 34.333933 0 0 0 13.513974-4.023992c0.745999-0.397999 1.589997-0.843998 2.533995-1.489997 0.595999-0.347999 1.191998-0.793998 1.887996-1.241998l0.447999-0.347999c5.515989-4.173992 9.589981-9.737981 11.825977-16.147969 0.248-0.545999 0.497999-1.241998 0.695999-1.987996l0.099999-0.447999c0.595999-2.037996 0.993998-4.073992 1.191998-6.061988 0.148-1.391997 0.148-2.583995 0.148-3.377993V288.165437c0-1.193998 0-2.335995-0.148-3.429993zM373.194271 618.186793H198.048613v-51.4739h175.145658v51.4739z m4.171992-208.597593c0 23.761954-19.343962 43.105916-43.073916 43.105916h-77.203849c-23.761954 0-43.107916-19.343962-43.107916-43.107916v-27.937945c0-23.727954 19.345962-43.073916 43.107916-43.073916l77.203849 0.002c23.727954 0 43.073916 19.343962 43.073916 43.071916v27.939945z m222.237566 208.597593h-175.145658v-51.4739h175.145658v51.4739z m31.335939-228.213555c0-34.945932 28.441944-63.345876 63.345876-63.345876 14.389972 0 27.937945 4.697991 39.265923 13.673973l5.11799 4.027992 6.249988-1.845996c4.529991-1.299997 9.187982-2.013996 13.927973-2.013996 27.225947 0 49.417903 22.191957 49.417903 49.501903 0 27.267947-22.191957 49.459903-49.417903 49.459904-4.739991 0-9.395982-0.669999-13.927973-2.013996l-6.249988-1.845997-5.11799 4.069992c-11.327978 8.935983-24.875951 13.675973-39.265923 13.675974-34.901932 0.002-63.345876-28.439944-63.345876-63.343877z m195.073619 228.213555h-175.145658v-51.4739h175.145658v51.4739z" fill="#FFD452" p-id="3263"></path><path d="M416.990186 559.240908v66.38587h190.061628v-66.38587h-190.061628z m175.155657 51.477899h-160.249687v-36.573928h160.249687v36.573928zM190.584628 559.240908v66.38587h190.059629v-66.38587h-190.059629z m175.153658 51.477899h-160.249687v-36.573928h160.249687v36.573928zM643.397743 559.240908v66.38587h190.061629v-66.38587h-190.061629z m175.155658 51.477899h-160.249687v-36.573928h160.249687v36.573928zM645.717739 662.662706h184.625639v14.905971h-184.625639zM334.276347 348.525319l-77.199849-0.002c-18.275964 0-33.143935 14.869971-33.143935 33.145936V409.5992c0 18.275964 14.867971 33.143935 33.143935 33.143935l77.199849 0.002c18.275964 0 33.143935-14.869971 33.143935-33.145935v-27.929945c0-18.275964-14.867971-33.143935-33.143935-33.143936z m18.237964 61.073881c0 10.05598-8.181984 18.239964-18.237964 18.239964l-77.199849-0.002c-10.05598 0-18.237964-8.179984-18.237964-18.235964v-27.929945c0-10.05598 8.179984-18.239964 18.237964-18.239965l77.199849 0.002c10.05598 0 18.237964 8.179984 18.237964 18.237965V409.5992z" fill="#4A555F" p-id="3264"></path><path d="M231.386548 388.181242h128.581749v14.905971h-128.581749z" fill="#4A555F" p-id="3265"></path><path d="M262.852487 355.977305h14.905971v39.655922h-14.905971zM314.364386 355.979305h14.905971v39.653922h-14.905971zM288.224437 395.633227h14.905971v39.653923h-14.905971z" fill="#4A555F" p-id="3266"></path><path d="M694.325644 389.975238m-48.607905 0a48.607905 48.607905 0 1 0 97.21581 0 48.607905 48.607905 0 1 0-97.21581 0Z" fill="#F58E6F" p-id="3267"></path><path d="M758.807518 389.977238m-34.719932 0a34.719932 34.719932 0 1 0 69.439864 0 34.719932 34.719932 0 1 0-69.439864 0Z" fill="#71CCE0" p-id="3268"></path><path d="M652.461726 0H387.248244c-40.187922 0-72.885858 32.695936-72.885858 72.887858v247.315517l69.121865-59.853883h268.977475c40.189922 0 72.883858-32.695936 72.883857-72.885858V72.887858C725.347583 32.695936 692.653647 0 652.461726 0z m57.979886 187.463634c0 31.967938-26.007949 57.979887-57.979886 57.979887H377.930262l-48.659905 42.133917V72.887858c0-31.971938 26.009949-57.981887 57.979887-57.981887h265.213482c31.971938 0 57.979887 26.009949 57.979886 57.981887v114.575776z" fill="#4A555F" p-id="3269"></path><path d="M652.459726 32.295937H387.250244c-22.377956 0-40.587921 18.207964-40.587921 40.589921v176.629655l24.785952-21.461958H652.459726c22.383956 0 40.593921-18.209964 40.59392-40.593921V72.887858c0-22.383956-18.209964-40.591921-40.59392-40.591921z" fill="#71CCE0" p-id="3270"></path><path d="M417.184185 95.343814h14.905971v69.969863h-14.905971z" fill="#4A555F" p-id="3271"></path><path d="M391.018236 142.573722l59.305884-37.125928 7.909985 12.633975-59.307884 37.125928z" fill="#4A555F" p-id="3272"></path><path d="M390.674237 119.035768l7.543985-12.851975 60.343882 35.41993-7.543985 12.851975zM513.243998 95.343814h14.90597v69.969863h-14.90597z" fill="#4A555F" p-id="3273"></path><path d="M487.068049 142.557722l59.309884-37.127928 7.907984 12.633975-59.309884 37.127928z" fill="#4A555F" p-id="3274"></path><path d="M486.774049 119.019768l7.549986-12.851975 60.337882 35.43993-7.549986 12.853975zM609.30781 95.343814h14.905971v69.969863h-14.905971z" fill="#4A555F" p-id="3275"></path><path d="M583.135861 142.577722l59.305884-37.125928 7.909985 12.633975-59.305884 37.125928z" fill="#4A555F" p-id="3276"></path><path d="M582.839862 119.017768l7.549985-12.853975 60.333882 35.43993-7.549985 12.853975zM504.568015 745.876543h14.90597v92.33982h-14.90597z" fill="#4A555F" p-id="3277"></path><path d="M512.02 830.764377c-53.273896 0-96.617811 43.341915-96.617811 96.617812 0 53.273896 43.341915 96.617811 96.617811 96.617811 53.277896 0 96.617811-43.341915 96.617811-96.617811 0-53.275896-43.339915-96.617811-96.617811-96.617812z m0 178.327652c-45.055912 0-81.70984-36.655928-81.70984-81.70984 0-45.055912 36.655928-81.70984 81.70984-81.709841 45.057912 0 81.71184 36.655928 81.71184 81.709841 0 45.053912-36.653928 81.70984-81.71184 81.70984z" fill="#4A555F" p-id="3278"></path><path d="M540.411945 913.754215h-56.78189a6.183988 6.183988 0 0 0-6.183988 6.183988v48.381906a6.183988 6.183988 0 0 0 6.183988 6.183988h56.78189a6.183988 6.183988 0 0 0 6.183987-6.183988V919.938203a6.183988 6.183988 0 0 0-6.183987-6.183988z" fill="#F58E6F" p-id="3279"></path><path d="M540.411945 906.30023h-56.77989c-7.517985 0-13.633973 6.117988-13.633973 13.637973v48.381906a13.649973 13.649973 0 0 0 13.633973 13.635973h56.77989c7.519985 0 13.639973-6.117988 13.639973-13.635973V919.938203a13.655973 13.655973 0 0 0-13.639973-13.637973z m-1.267998 60.749881H484.900053v-45.84391h54.243894v45.84391z" fill="#4A555F" p-id="3280"></path><path d="M512.02 862.862315c-17.181966 0-31.159939 13.979973-31.159939 31.159939v27.183947h62.321878v-27.183947c0-17.181966-13.979973-31.159939-31.161939-31.159939z m16.255968 43.437915h-32.509936v-12.277976c0-8.961982 7.291986-16.253968 16.253968-16.253968s16.253968 7.291986 16.253968 16.253968v12.277976zM601.139826 919.928203h363.55529v14.905971H601.139826z" fill="#4A555F" p-id="3281"></path></svg>
