<svg t="1683827858755" class="icon" viewBox="0 0 1024 1024" version="1.1" xmlns="http://www.w3.org/2000/svg" p-id="6208" width="200" height="200"><path d="M547.6 618.4c10.1 7.2 20.4 13.5 31.2 18.9 11.6 5.9 23.5 10.8 35.6 14.6 94.5 30.2 201.8-0.6 265-84.3 58.1-77.1 62.8-177.9 20.3-257.8-0.1-0.1-0.1-0.2-0.2-0.3-4.4-8.4-9.4-16.5-14.9-24.3-0.3-0.4-0.6-0.9-0.9-1.3-26.1-39.4-59.3-75.1-99.2-105.2C595 35.8 325.7 73.5 182.8 262.9 40 452.3 77.7 721.7 267.1 864.6c35.4 26.7 73.7 47.2 113.4 61.4 0.4 0.1 0.7 0.3 1.1 0.4 0.7 0.3 1.4 0.5 2.1 0.7 0.3 0.1 0.6 0.2 1 0.3 35.6 11.8 76.4 0.4 100.2-31.3 22-29.2 23.6-67.4 7.1-97.5-5-9.2-11.7-17.6-20.1-24.8-1.5-1.3-3.1-2.6-4.7-3.8-1.8-1.3-3.6-2.6-5.5-3.8-34.2-29.7-40-81.2-12.3-118 23.4-30.9 63.4-41.9 98.2-29.8z m-283 6.2c-38.2-28.8-45.9-83.2-17-121.4 28.8-38.2 83.2-45.9 121.4-17 38.2 28.8 45.9 83.2 17 121.4-28.8 38.2-83.2 45.8-121.4 17z" fill="#FDF17F" p-id="6209"></path><path d="M365.2 816.8m-58.4 0a58.4 58.4 0 1 0 116.8 0 58.4 58.4 0 1 0-116.8 0Z" fill="#F65D73" p-id="6210"></path><path d="M365.2 284.4m-58.4 0a58.4 58.4 0 1 0 116.8 0 58.4 58.4 0 1 0-116.8 0Z" fill="#50E6CC" p-id="6211"></path><path d="M590.4 226m-58.4 0a58.4 58.4 0 1 0 116.8 0 58.4 58.4 0 1 0-116.8 0Z" fill="#46CDFB" p-id="6212"></path><path d="M766.8 351m-58.4 0a58.4 58.4 0 1 0 116.8 0 58.4 58.4 0 1 0-116.8 0Z" fill="#BD9EE2" p-id="6213"></path><path d="M681.9 522m-58.4 0a58.4 58.4 0 1 0 116.8 0 58.4 58.4 0 1 0-116.8 0Z" fill="#EB866B" p-id="6214"></path><path d="M899.6 309.8c-0.1-0.1-0.1-0.2-0.2-0.3-4.4-8.4-9.4-16.5-14.9-24.3-0.3-0.4-0.6-0.9-0.9-1.3-26.1-39.4-59.3-75.1-99.2-105.2-87.1-65.7-191-93.2-291.9-85.3 78.9 6.1 157.1 34.1 225 85.3 39.9 30.1 73.1 65.8 99.2 105.2 0.3 0.4 0.6 0.9 0.9 1.3 5.5 7.8 10.5 15.9 14.9 24.3 0.1 0.1 0.1 0.2 0.2 0.3 42.5 80 37.8 180.7-20.3 257.8-40 53-97.7 84.8-158.6 93.3 83.6 11.7 171-21.1 225.5-93.3 58.2-77.1 62.9-177.9 20.3-257.8zM492 798.7c-5-9.2-11.7-17.6-20.1-24.8-1.5-1.3-3.1-2.6-4.7-3.8-1.8-1.4-3.6-2.6-5.5-3.9-34.2-29.7-40-81.2-12.3-118 9.3-12.4 21.4-21.6 34.7-27.4-1.2-0.8-2.3-1.6-3.5-2.4-34.8-12.1-74.8-1.1-98.1 29.8-27.7 36.7-21.9 88.3 12.3 118 1.9 1.2 3.7 2.5 5.5 3.9 1.6 1.2 3.2 2.5 4.8 3.8 8.3 7.2 15 15.6 20.1 24.8 16.4 30.1 14.9 68.3-7.1 97.5-10.3 13.7-23.7 23.5-38.5 29.4 0.3 0.1 0.7 0.2 1 0.4 0.4 0.1 0.7 0.3 1.1 0.4 0.7 0.3 1.4 0.5 2.1 0.8 0.3 0.1 0.6 0.2 1 0.3 35.6 11.8 76.4 0.4 100.2-31.3 21.9-29.2 23.5-67.4 7-97.5z" fill="#FAD672" p-id="6215"></path><path d="M423.6 816.8c0 32.2-26.1 58.4-58.4 58.4-7 0-13.8-1.2-20-3.5 22.4-8.2 38.4-29.7 38.4-54.9s-16-46.7-38.4-54.9c6.2-2.3 13-3.5 20-3.5 32.3 0 58.4 26.1 58.4 58.4z" fill="#F04B69" p-id="6216"></path><path d="M423.5 284.4c0 32.2-26.1 58.4-58.4 58.4-7 0-13.8-1.2-20-3.5 22.4-8.2 38.4-29.7 38.4-54.9s-16-46.7-38.4-54.9c6.2-2.3 13-3.5 20-3.5 32.3 0 58.4 26.2 58.4 58.4z" fill="#45DABD" p-id="6217"></path><path d="M648.8 226c0 32.2-26.1 58.4-58.4 58.4-7 0-13.8-1.2-20-3.5 22.4-8.2 38.4-29.6 38.4-54.9 0-25.2-16-46.7-38.4-54.9 6.2-2.3 13-3.5 20-3.5 32.2 0.1 58.4 26.2 58.4 58.4z" fill="#15B7FF" p-id="6218"></path><path d="M825.2 351c0 32.2-26.1 58.4-58.4 58.4-7 0-13.8-1.2-20-3.5 22.4-8.2 38.4-29.7 38.4-54.9s-16-46.7-38.4-54.9c6.2-2.3 13-3.5 20-3.5 32.2 0 58.4 26.1 58.4 58.4z" fill="#978CDB" p-id="6219"></path><path d="M740.2 522c0 32.2-26.1 58.4-58.4 58.4-7 0-13.8-1.2-20-3.5 22.4-8.2 38.4-29.6 38.4-54.9s-16-46.7-38.4-54.9c6.2-2.3 13-3.5 20-3.5 32.3 0 58.4 26.2 58.4 58.4z" fill="#DA6749" p-id="6220"></path></svg>
