<svg t="1684579834390" class="icon" viewBox="0 0 1024 1024" version="1.1" xmlns="http://www.w3.org/2000/svg" p-id="6082" width="200" height="200"><path d="M813.668 142.196c38.66 3.88 68.968 29.468 76.562 67.572 11.222 56.4 24.17 159.66 24.17 335.832 0 176.176-12.948 279.44-24.17 335.82-7.594 38.126-37.9 63.706-76.562 67.58-52.596 5.288-145.736 11-302.468 11-156.732 0-249.872-5.712-302.468-11-38.66-3.874-68.968-29.454-76.562-67.58C120.948 825.04 108 721.776 108 545.6c0-176.174 12.948-279.432 24.17-335.832 7.594-38.104 37.9-63.692 76.562-67.572 52.596-5.28 145.736-10.996 302.468-10.996 156.732 0 249.872 5.716 302.468 10.996z" fill="#FF934A" p-id="6083"></path><path d="M625.754 65.096c39.2 0.796 68.768 35.396 64.176 74.328l-5.242 44.448c-3.988 33.834-32.66 59.328-66.73 59.328H404.532c-34.072 0-62.744-25.494-66.73-59.328l-5.242-44.448c-4.592-38.932 24.976-73.532 64.176-74.328C430.784 64.4 468.82 64 511.244 64c42.426 0 80.46 0.4 114.51 1.096z" fill="#FFDA8F" p-id="6084"></path><path d="M287.2 702.4c0-32.12 20.564-55.754 52.662-55.978 1.098-0.022 2.196-0.022 3.338-0.022s2.24 0 3.338 0.022c32.1 0.224 52.662 23.856 52.662 55.978 0 32.12-20.564 55.754-52.662 55.978-1.098 0.022-2.196 0.022-3.338 0.022s-2.24 0-3.338-0.022c-32.1-0.224-52.662-23.856-52.662-55.978zM466.892 683.494c1.166-20.226 16.688-33.69 36.894-35.146 14.896-1.052 35.638-1.948 63.414-1.948 27.776 0 48.52 0.896 63.414 1.948 20.206 1.456 35.728 14.92 36.894 35.146 0.312 5.42 0.492 11.694 0.492 18.906 0 7.212-0.18 13.484-0.492 18.906-1.166 20.226-16.688 33.69-36.894 35.146-14.896 1.052-35.638 1.948-63.414 1.948-27.776 0-48.52-0.896-63.414-1.948-20.206-1.456-35.728-14.92-36.894-35.146-0.312-5.42-0.492-11.694-0.492-18.906 0-7.212 0.18-13.484 0.492-18.906zM287.2 478.4c0-32.118 20.564-55.754 52.662-55.988a540.422 540.422 0 0 1 6.676 0c32.1 0.234 52.662 23.87 52.662 55.988 0 32.12-20.564 55.754-52.662 55.978-1.098 0.022-2.196 0.022-3.338 0.022s-2.24 0-3.338-0.022c-32.1-0.224-52.662-23.856-52.662-55.978zM467.34 456.228c1.726-18.514 16.958-29.778 35.504-31.06 20.116-1.388 51.722-2.768 97.956-2.768s77.84 1.38 97.956 2.768c18.546 1.282 33.78 12.546 35.504 31.06 0.58 6.132 0.94 13.46 0.94 22.172 0 8.714-0.36 16.04-0.94 22.176-1.726 18.502-16.958 29.77-35.504 31.046-20.116 1.39-51.722 2.778-97.956 2.778s-77.84-1.388-97.956-2.778c-18.546-1.276-33.78-12.544-35.504-31.046-0.58-6.138-0.94-13.462-0.94-22.176 0-8.714 0.36-16.04 0.94-22.172z" fill="#FFFFFF" p-id="6085"></path></svg>
