<svg t="1682349246966" class="icon" viewBox="0 0 1024 1024" version="1.1" xmlns="http://www.w3.org/2000/svg" p-id="89153" width="200" height="200"><path d="M910.72 807.04L704.832 603.712c13.248-27.84 20.608-59.008 20.608-91.648A213.12 213.12 0 0 0 512 298.624a215.486 215.486 0 0 0-57.024 7.68l91.392 91.008c37.824 38.144 34.944 102.016-6.144 142.976C499.328 581.12 435.2 584 397.312 546.496l-91.072-91.648c-5.056 18.112-7.68 37.248-7.68 57.28a213.76 213.76 0 0 0 213.504 214.016 209.28 209.28 0 0 0 91.328-20.8L808.256 909.12c26.24 25.664 69.888 24.128 97.984-4.352 28.032-27.968 30.016-72.064 4.48-97.728z m-55.36 82.944a36.736 36.736 0 0 1-36.608-36.416 36.48 36.48 0 0 1 36.608-35.584 35.84 35.84 0 0 1 36.224 35.584 36.16 36.16 0 0 1-36.224 36.416zM960 417.344h-20.736l-48.64-0.512h-0.384a59.776 59.776 0 0 1-27.136-9.664c-0.64 0-0.896-0.192-1.152-0.64a62.272 62.272 0 0 1-24.832-73.28 54.016 54.016 0 0 1 10.24-19.52l10.752-11.008 24.256-23.872 14.272-14.528a74.88 74.88 0 0 0-0.768-92.096l-41.728-42.752a76.672 76.672 0 0 0-92.992-1.344l-15.168 14.592-33.728 34.688h-0.512a63.424 63.424 0 0 1-64.896 8.512 69.184 69.184 0 0 1-20.096-13.568 67.008 67.008 0 0 1-17.856-37.504V64.64A74.368 74.368 0 0 0 543.04 0h-59.456a75.712 75.712 0 0 0-66.432 64.256v69.504c-0.256 1.792-0.896 3.712-1.024 5.312v0.64c-0.512 1.728-0.704 3.52-0.96 5.056-0.64 0-0.64 0.64-0.64 0.64-0.64 1.536-1.024 3.968-1.856 5.056-0.576 1.92-1.664 3.456-2.496 5.248v0.192a56.128 56.128 0 0 1-15.488 19.328 63.552 63.552 0 0 1-80.704 1.28l-10.88-10.944-24.192-23.68-14.656-14.912a74.752 74.752 0 0 0-92.096 1.088l-42.688 42.112a75.904 75.904 0 0 0-1.28 92.544l14.656 14.464 34.432 34.24 1.92 3.072c0.448 0.192 0.832 1.088 1.728 2.24 0.448 0.64 0.832 1.92 1.536 2.816 0 0.192 1.152 1.344 1.152 1.984 0.576 0.896 1.28 2.432 2.048 3.52 0 0.64 0.192 1.344 0.576 1.984 0.64 0.896 0.896 2.432 1.856 3.776 0 0.448 0.128 1.088 0.32 1.728 0.192 1.92 1.216 3.456 1.216 5.376a19.456 19.456 0 0 1 0.832 5.696 61.76 61.76 0 0 1-18.304 53.12 62.72 62.72 0 0 1-37.568 18.24H65.024c-34.112 4.8-60.992 32-64.832 65.792L0 540.608c3.456 34.368 30.272 61.376 64.256 65.984h20.928l48.512 0.64c1.728 0.256 4.16 0.256 5.824 0.896h1.664c1.536 0.64 2.432 1.152 4.16 1.344 26.176 8.128 45.184 32.512 45.184 61.44a63.808 63.808 0 0 1-13.888 39.872l-10.688 10.368-24.448 23.872-14.592 14.528a76.224 76.224 0 0 0 0.768 92.288l42.432 42.752a75.392 75.392 0 0 0 92.544 0.896l14.464-14.464 34.752-33.984c0-0.448 0.256-0.448 0.704-0.704 1.344-1.344 2.752-1.92 3.776-3.264 1.216-0.192 1.408-0.192 2.304-0.896 0.64-0.448 1.728-1.344 2.624-1.92 1.216-0.768 2.752-0.896 3.968-1.536 0.768-0.448 1.344-0.704 1.6-1.152 1.792-0.192 3.008-0.896 5.44-1.536 2.112-0.64 3.52-1.472 5.056-1.472h0.576c1.664-0.448 3.392-0.704 5.312-1.152h0.448c1.6 0 3.072 0 4.416-0.64a63.872 63.872 0 0 1 48.896 19.072 63.232 63.232 0 0 1 18.56 37.952l-0.192 14.912v54.336c4.032 34.432 31.36 61.44 65.408 64.96H540.8a74.496 74.496 0 0 0 65.984-63.808v-20.608l0.64-35.072v-13.888a63.232 63.232 0 0 1 14.592-34.368c0.512-0.256 1.024-1.536 1.984-1.984a81.92 81.92 0 0 1 12.736-11.2c1.472-0.192 2.88-1.344 3.776-1.92 1.152-0.64 1.152-0.64 1.6-0.64 0.64-0.256 1.024-0.256 1.152-0.256 1.28-0.896 2.24-0.896 3.648-1.472l-57.344-57.28a279.04 279.04 0 0 1-78.144 10.752A279.488 279.488 0 0 1 231.744 512a280.32 280.32 0 0 1 281.088-280.256 280.512 280.512 0 0 1 279.36 281.152c0 26.304-4.032 52.416-11.008 76.096l57.728 56.832c3.008-6.784 7.616-12.736 12.864-18.688 6.016-5.696 13.888-10.048 21.12-12.864a56.96 56.96 0 0 1 16.384-4.864h69.824a75.264 75.264 0 0 0 64.768-65.536v-60.608A74.496 74.496 0 0 0 960 417.344z" fill="#f59e37" p-id="89154"></path></svg>
