<svg t="1682349941304" class="icon" viewBox="0 0 1024 1024" version="1.1" xmlns="http://www.w3.org/2000/svg" p-id="107471" width="200" height="200"><path d="M181.589333 504.32a336 336 0 1 0 672 0 336 336 0 0 0-672 0z" fill="#FEEDCD" p-id="107472"></path><path d="M924.928 663.466667a440.234667 440.234667 0 0 1-404.053333 288.64l-6.698667 0.128h-4.48c-105.258667 0-207.402667-37.717333-287.402667-106.282667a443.136 443.136 0 0 1-149.248-263.338667l-1.28-7.765333 66.858667 44.586667 36.821333-55.210667-123.008-82.048a33.28 33.28 0 0 0-51.754666 27.52c0 280.704 228.352 509.013333 509.013333 509.013333h0.256a506.88 506.88 0 0 0 291.541333-91.733333 506.24 506.24 0 0 0 186.154667-241.706667l2.858667-7.68-62.848-21.333333-2.730667 7.168zM509.696 0.64c-104.874667 0-205.696 31.786667-291.626667 91.776A506.453333 506.453333 0 0 0 31.786667 334.165333l-2.858667 7.68 62.848 21.333334 2.730667-7.253334a444.373333 444.373333 0 0 1 415.104-288.938666 443.008 443.008 0 0 1 436.693333 369.706666l1.237333 7.765334-66.858666-44.586667-36.778667 55.210667 122.965333 82.048a33.28 33.28 0 0 0 51.626667-27.52C1018.752 229.034667 790.4 0.682667 509.696 0.682667z" fill="#FFA500" p-id="107473"></path><path d="M662.528 438.4v-46.933333h-238.506667v46.933333h238.506667zM358.741333 387.413333l46.848-30.592c-11.861333-14.08-23.424-28.245333-34.602666-42.752l-36.693334-42.752-44.928 26.410667c8.106667 9.6 18.986667 23.765333 32.682667 42.837333 16.341333 20.352 28.586667 36.010667 36.693333 46.848z m16.341334 254.72V434.346667H275.2v50.944h46.848v171.221333c1.365333 20.352-4.778667 34.602667-18.389333 42.837333l32.682666 42.88c8.106667-8.234667 17.621333-17.066667 28.458667-26.538666 10.837333-10.837333 27.904-23.765333 50.986667-38.741334 9.472-6.741333 16.341333-11.52 20.309333-14.293333a423.68 423.68 0 0 1-12.202667-57.130667l-48.810666 36.693334z" fill="#FFA500" p-id="107474"></path><path d="M744.021333 682.965333v-393.386666h-307.797333v48.938666h252.672v326.186667c2.773333 23.04-9.472 33.237333-36.693333 30.592H584.96c5.376 21.76 8.789333 39.338667 10.154667 52.906667h81.493333c47.786667-0.085333 70.186667-21.802667 67.413333-65.237334z" fill="#FFA500" p-id="107475"></path><path d="M633.941333 491.434667h-187.562666v173.226666h187.562666v-173.226666z m-48.896 128.341333h-89.728v-83.541333h89.728v83.541333z" fill="#FFA500" p-id="107476"></path></svg>
