<svg t="1688493463441" class="icon" viewBox="0 0 1024 1024" version="1.1" xmlns="http://www.w3.org/2000/svg" p-id="5541" width="200" height="200"><path d="M512 0C230.4 0 0 230.4 0 512s230.4 512 512 512 512-230.4 512-512S793.6 0 512 0z" fill="#F49C2E" p-id="5542"></path><path d="M750.933333 257.422222c2.844444 1.422222 2.844444 4.266667 2.844445 5.688889l-103.822222 432.355556c0 1.422222-1.422222 2.844444-2.844445 4.266666-1.422222 0-1.422222 1.422222-2.844444 1.422223h-1.422223l-207.644444-64c-1.422222 0-2.844444-1.422222-4.266667-4.266667 0-1.422222 0-4.266667 1.422223-5.688889l206.222222-247.466667-257.422222 234.666667c-1.422222 1.422222-4.266667 1.422222-5.688889 1.422222l-186.311111-59.733333c-2.844444 0-4.266667-2.844444-4.266667-5.688889s1.422222-4.266667 2.844444-5.688889L745.244444 256c2.844444 0 4.266667 0 5.688889 1.422222z m-261.688889 426.666667c1.422222 0 2.844444 1.422222 2.844445 2.844444v4.266667l-54.044445 86.755556c-1.422222 1.422222-2.844444 2.844444-4.266666 2.844444h-1.422222c-2.844444 0-4.266667-2.844444-4.266667-5.688889v-103.822222c0-1.422222 1.422222-2.844444 2.844444-4.266667 1.422222-1.422222 2.844444-1.422222 4.266667-1.422222l54.044444 18.488889z" fill="#FFFFFF" p-id="5543"></path></svg>
